<mxfile host="app.diagrams.net" modified="2024-03-31T19:18:19.246Z" agent="Mozilla/5.0 (Macintosh; Intel Mac OS X 10_15_7) AppleWebKit/537.36 (KHTML, like Gecko) Chrome/123.0.0.0 Safari/537.36" etag="Sg0xtuXpXwPyoW89GDvd" version="24.1.0" type="github" pages="7">
  <diagram name="1" id="fnhkx7p2NtV-dYCjLwzb">
    <mxGraphModel dx="2639" dy="1136" grid="1" gridSize="10" guides="1" tooltips="1" connect="1" arrows="1" fold="1" page="1" pageScale="1" pageWidth="850" pageHeight="1100" math="0" shadow="0">
      <root>
        <mxCell id="0" />
        <mxCell id="1" parent="0" />
        <mxCell id="ees9Ql2LbW7cQdXtfS-G-1" value="&lt;span style=&quot;color: rgb(51, 51, 51); font-family: sans-serif, sans-serif; font-size: 14.44px; text-align: left; background-color: rgb(255, 255, 255);&quot;&gt;6,&amp;nbsp;&lt;/span&gt;&lt;span style=&quot;box-sizing: border-box; color: rgb(51, 51, 51); font-family: sans-serif, sans-serif; text-align: left; background-color: rgb(255, 255, 255); font-size: 0.9375rem;&quot;&gt;25,&amp;nbsp;&lt;/span&gt;&lt;span style=&quot;box-sizing: border-box; color: rgb(51, 51, 51); font-family: sans-serif, sans-serif; text-align: left; background-color: rgb(255, 255, 255); font-size: 0.9375rem;&quot;&gt;1,&amp;nbsp;&lt;/span&gt;&lt;span style=&quot;box-sizing: border-box; color: rgb(51, 51, 51); font-family: sans-serif, sans-serif; text-align: left; background-color: rgb(255, 255, 255); font-size: 0.9375rem;&quot;&gt;7,&amp;nbsp;&lt;/span&gt;&lt;span style=&quot;box-sizing: border-box; color: rgb(51, 51, 51); font-family: sans-serif, sans-serif; text-align: left; background-color: rgb(255, 255, 255); font-size: 0.9375rem;&quot;&gt;16,&amp;nbsp;&lt;/span&gt;&lt;span style=&quot;box-sizing: border-box; color: rgb(51, 51, 51); font-family: sans-serif, sans-serif; text-align: left; background-color: rgb(255, 255, 255); font-size: 0.9375rem;&quot;&gt;19,&amp;nbsp;&lt;/span&gt;&lt;span style=&quot;box-sizing: border-box; color: rgb(51, 51, 51); font-family: sans-serif, sans-serif; text-align: left; background-color: rgb(255, 255, 255); font-size: 0.9375rem;&quot;&gt;3,&amp;nbsp;&lt;/span&gt;&lt;span style=&quot;box-sizing: border-box; color: rgb(51, 51, 51); font-family: sans-serif, sans-serif; text-align: left; background-color: rgb(255, 255, 255); font-size: 0.9375rem;&quot;&gt;80,&amp;nbsp;&lt;/span&gt;&lt;span style=&quot;box-sizing: border-box; color: rgb(51, 51, 51); font-family: sans-serif, sans-serif; text-align: left; background-color: rgb(255, 255, 255); font-size: 0.9375rem;&quot;&gt;29,&amp;nbsp;&lt;/span&gt;&lt;span style=&quot;box-sizing: border-box; color: rgb(51, 51, 51); font-family: sans-serif, sans-serif; text-align: left; background-color: rgb(255, 255, 255); font-size: 0.9375rem;&quot;&gt;13,&amp;nbsp;&lt;/span&gt;&lt;span style=&quot;box-sizing: border-box; color: rgb(51, 51, 51); font-family: sans-serif, sans-serif; text-align: left; background-color: rgb(255, 255, 255); font-size: 0.9375rem;&quot;&gt;22,&amp;nbsp;&lt;/span&gt;&lt;span style=&quot;box-sizing: border-box; color: rgb(51, 51, 51); font-family: sans-serif, sans-serif; text-align: left; background-color: rgb(255, 255, 255); font-size: 0.9375rem;&quot;&gt;31&lt;/span&gt;" style="rounded=1;whiteSpace=wrap;html=1;" vertex="1" parent="1">
          <mxGeometry x="60" y="80" width="310" height="40" as="geometry" />
        </mxCell>
        <mxCell id="ees9Ql2LbW7cQdXtfS-G-2" style="edgeStyle=orthogonalEdgeStyle;rounded=0;orthogonalLoop=1;jettySize=auto;html=1;exitX=0;exitY=1;exitDx=0;exitDy=0;entryX=0.5;entryY=0;entryDx=0;entryDy=0;" edge="1" parent="1" source="ees9Ql2LbW7cQdXtfS-G-4" target="ees9Ql2LbW7cQdXtfS-G-7">
          <mxGeometry relative="1" as="geometry" />
        </mxCell>
        <mxCell id="ees9Ql2LbW7cQdXtfS-G-3" style="edgeStyle=orthogonalEdgeStyle;rounded=0;orthogonalLoop=1;jettySize=auto;html=1;exitX=1;exitY=1;exitDx=0;exitDy=0;entryX=0.5;entryY=0;entryDx=0;entryDy=0;" edge="1" parent="1" source="ees9Ql2LbW7cQdXtfS-G-4" target="ees9Ql2LbW7cQdXtfS-G-32">
          <mxGeometry relative="1" as="geometry" />
        </mxCell>
        <mxCell id="ees9Ql2LbW7cQdXtfS-G-4" value="6" style="ellipse;whiteSpace=wrap;html=1;aspect=fixed;" vertex="1" parent="1">
          <mxGeometry x="90" y="160" width="60" height="60" as="geometry" />
        </mxCell>
        <mxCell id="ees9Ql2LbW7cQdXtfS-G-5" style="edgeStyle=orthogonalEdgeStyle;rounded=0;orthogonalLoop=1;jettySize=auto;html=1;exitX=0;exitY=1;exitDx=0;exitDy=0;entryX=0.5;entryY=0;entryDx=0;entryDy=0;" edge="1" parent="1" source="ees9Ql2LbW7cQdXtfS-G-7" target="ees9Ql2LbW7cQdXtfS-G-10">
          <mxGeometry relative="1" as="geometry" />
        </mxCell>
        <mxCell id="ees9Ql2LbW7cQdXtfS-G-6" style="edgeStyle=orthogonalEdgeStyle;rounded=0;orthogonalLoop=1;jettySize=auto;html=1;exitX=1;exitY=1;exitDx=0;exitDy=0;entryX=0.5;entryY=0;entryDx=0;entryDy=0;" edge="1" parent="1" source="ees9Ql2LbW7cQdXtfS-G-7" target="ees9Ql2LbW7cQdXtfS-G-23">
          <mxGeometry relative="1" as="geometry" />
        </mxCell>
        <mxCell id="ees9Ql2LbW7cQdXtfS-G-7" value="25" style="ellipse;whiteSpace=wrap;html=1;aspect=fixed;" vertex="1" parent="1">
          <mxGeometry x="-280" y="320" width="60" height="60" as="geometry" />
        </mxCell>
        <mxCell id="ees9Ql2LbW7cQdXtfS-G-8" style="edgeStyle=orthogonalEdgeStyle;rounded=0;orthogonalLoop=1;jettySize=auto;html=1;exitX=0;exitY=1;exitDx=0;exitDy=0;entryX=0.5;entryY=0;entryDx=0;entryDy=0;" edge="1" parent="1" source="ees9Ql2LbW7cQdXtfS-G-10" target="ees9Ql2LbW7cQdXtfS-G-13">
          <mxGeometry relative="1" as="geometry" />
        </mxCell>
        <mxCell id="ees9Ql2LbW7cQdXtfS-G-9" style="edgeStyle=orthogonalEdgeStyle;rounded=0;orthogonalLoop=1;jettySize=auto;html=1;exitX=1;exitY=1;exitDx=0;exitDy=0;" edge="1" parent="1" source="ees9Ql2LbW7cQdXtfS-G-10" target="ees9Ql2LbW7cQdXtfS-G-17">
          <mxGeometry relative="1" as="geometry" />
        </mxCell>
        <mxCell id="ees9Ql2LbW7cQdXtfS-G-10" value="7" style="ellipse;whiteSpace=wrap;html=1;aspect=fixed;" vertex="1" parent="1">
          <mxGeometry x="-520" y="410" width="60" height="60" as="geometry" />
        </mxCell>
        <mxCell id="ees9Ql2LbW7cQdXtfS-G-13" value="80" style="ellipse;whiteSpace=wrap;html=1;aspect=fixed;" vertex="1" parent="1">
          <mxGeometry x="-650" y="490" width="60" height="60" as="geometry" />
        </mxCell>
        <mxCell id="ees9Ql2LbW7cQdXtfS-G-17" value="29" style="ellipse;whiteSpace=wrap;html=1;aspect=fixed;" vertex="1" parent="1">
          <mxGeometry x="-385" y="490" width="60" height="60" as="geometry" />
        </mxCell>
        <mxCell id="ees9Ql2LbW7cQdXtfS-G-21" style="edgeStyle=orthogonalEdgeStyle;rounded=0;orthogonalLoop=1;jettySize=auto;html=1;exitX=0;exitY=1;exitDx=0;exitDy=0;entryX=0.5;entryY=0;entryDx=0;entryDy=0;" edge="1" parent="1" source="ees9Ql2LbW7cQdXtfS-G-23" target="ees9Ql2LbW7cQdXtfS-G-26">
          <mxGeometry relative="1" as="geometry" />
        </mxCell>
        <mxCell id="ees9Ql2LbW7cQdXtfS-G-22" style="edgeStyle=orthogonalEdgeStyle;rounded=0;orthogonalLoop=1;jettySize=auto;html=1;exitX=1;exitY=1;exitDx=0;exitDy=0;" edge="1" parent="1" source="ees9Ql2LbW7cQdXtfS-G-23" target="ees9Ql2LbW7cQdXtfS-G-28">
          <mxGeometry relative="1" as="geometry" />
        </mxCell>
        <mxCell id="ees9Ql2LbW7cQdXtfS-G-23" value="16" style="ellipse;whiteSpace=wrap;html=1;aspect=fixed;" vertex="1" parent="1">
          <mxGeometry x="-20" y="410" width="60" height="60" as="geometry" />
        </mxCell>
        <mxCell id="ees9Ql2LbW7cQdXtfS-G-26" value="13" style="ellipse;whiteSpace=wrap;html=1;aspect=fixed;" vertex="1" parent="1">
          <mxGeometry x="-150" y="490" width="60" height="60" as="geometry" />
        </mxCell>
        <mxCell id="ees9Ql2LbW7cQdXtfS-G-28" value="22" style="ellipse;whiteSpace=wrap;html=1;aspect=fixed;" vertex="1" parent="1">
          <mxGeometry x="115" y="490" width="60" height="60" as="geometry" />
        </mxCell>
        <mxCell id="ees9Ql2LbW7cQdXtfS-G-30" style="edgeStyle=orthogonalEdgeStyle;rounded=0;orthogonalLoop=1;jettySize=auto;html=1;exitX=0;exitY=1;exitDx=0;exitDy=0;entryX=0.5;entryY=0;entryDx=0;entryDy=0;" edge="1" parent="1" source="ees9Ql2LbW7cQdXtfS-G-32" target="ees9Ql2LbW7cQdXtfS-G-35">
          <mxGeometry relative="1" as="geometry" />
        </mxCell>
        <mxCell id="ees9Ql2LbW7cQdXtfS-G-31" style="edgeStyle=orthogonalEdgeStyle;rounded=0;orthogonalLoop=1;jettySize=auto;html=1;exitX=1;exitY=1;exitDx=0;exitDy=0;entryX=0.5;entryY=0;entryDx=0;entryDy=0;" edge="1" parent="1" source="ees9Ql2LbW7cQdXtfS-G-32" target="ees9Ql2LbW7cQdXtfS-G-40">
          <mxGeometry relative="1" as="geometry" />
        </mxCell>
        <mxCell id="ees9Ql2LbW7cQdXtfS-G-32" value="1" style="ellipse;whiteSpace=wrap;html=1;aspect=fixed;" vertex="1" parent="1">
          <mxGeometry x="430" y="320" width="60" height="60" as="geometry" />
        </mxCell>
        <mxCell id="ees9Ql2LbW7cQdXtfS-G-33" style="edgeStyle=orthogonalEdgeStyle;rounded=0;orthogonalLoop=1;jettySize=auto;html=1;exitX=0;exitY=1;exitDx=0;exitDy=0;entryX=0.5;entryY=0;entryDx=0;entryDy=0;" edge="1" parent="1" source="ees9Ql2LbW7cQdXtfS-G-35" target="ees9Ql2LbW7cQdXtfS-G-36">
          <mxGeometry relative="1" as="geometry" />
        </mxCell>
        <mxCell id="ees9Ql2LbW7cQdXtfS-G-35" value="19" style="ellipse;whiteSpace=wrap;html=1;aspect=fixed;" vertex="1" parent="1">
          <mxGeometry x="300" y="420" width="60" height="60" as="geometry" />
        </mxCell>
        <mxCell id="ees9Ql2LbW7cQdXtfS-G-36" value="31" style="ellipse;whiteSpace=wrap;html=1;aspect=fixed;" vertex="1" parent="1">
          <mxGeometry x="220" y="490" width="60" height="60" as="geometry" />
        </mxCell>
        <mxCell id="ees9Ql2LbW7cQdXtfS-G-40" value="3" style="ellipse;whiteSpace=wrap;html=1;aspect=fixed;" vertex="1" parent="1">
          <mxGeometry x="570" y="430" width="60" height="60" as="geometry" />
        </mxCell>
        <mxCell id="ees9Ql2LbW7cQdXtfS-G-43" value="12 Elementos" style="text;html=1;align=center;verticalAlign=middle;resizable=0;points=[];autosize=1;strokeColor=none;fillColor=none;" vertex="1" parent="1">
          <mxGeometry x="280" y="50" width="100" height="30" as="geometry" />
        </mxCell>
      </root>
    </mxGraphModel>
  </diagram>
  <diagram name="2" id="fDFQEqJgtnCzWMyupgJf">
    <mxGraphModel dx="2639" dy="1136" grid="1" gridSize="10" guides="1" tooltips="1" connect="1" arrows="1" fold="1" page="1" pageScale="1" pageWidth="850" pageHeight="1100" math="0" shadow="0">
      <root>
        <mxCell id="crSMvrlmASKqUykDcx5f-0" />
        <mxCell id="crSMvrlmASKqUykDcx5f-1" parent="crSMvrlmASKqUykDcx5f-0" />
        <mxCell id="crSMvrlmASKqUykDcx5f-2" value="&lt;span style=&quot;color: rgb(51, 51, 51); font-family: sans-serif, sans-serif; font-size: 14.44px; text-align: left; background-color: rgb(255, 255, 255);&quot;&gt;6,&amp;nbsp;&lt;/span&gt;&lt;span style=&quot;box-sizing: border-box; color: rgb(51, 51, 51); font-family: sans-serif, sans-serif; text-align: left; background-color: rgb(255, 255, 255); font-size: 0.9375rem;&quot;&gt;25,&amp;nbsp;&lt;/span&gt;&lt;span style=&quot;box-sizing: border-box; color: rgb(51, 51, 51); font-family: sans-serif, sans-serif; text-align: left; background-color: rgb(255, 255, 255); font-size: 0.9375rem;&quot;&gt;1,&amp;nbsp;&lt;/span&gt;&lt;span style=&quot;box-sizing: border-box; color: rgb(51, 51, 51); font-family: sans-serif, sans-serif; text-align: left; background-color: rgb(255, 255, 255); font-size: 0.9375rem;&quot;&gt;7,&amp;nbsp;&lt;/span&gt;&lt;span style=&quot;box-sizing: border-box; color: rgb(51, 51, 51); font-family: sans-serif, sans-serif; text-align: left; background-color: rgb(255, 255, 255); font-size: 0.9375rem;&quot;&gt;16,&amp;nbsp;&lt;/span&gt;&lt;span style=&quot;box-sizing: border-box; color: rgb(51, 51, 51); font-family: sans-serif, sans-serif; text-align: left; background-color: rgb(255, 255, 255); font-size: 0.9375rem;&quot;&gt;19,&amp;nbsp;&lt;/span&gt;&lt;span style=&quot;box-sizing: border-box; color: rgb(51, 51, 51); font-family: sans-serif, sans-serif; text-align: left; background-color: rgb(255, 255, 255); font-size: 0.9375rem;&quot;&gt;3,&amp;nbsp;&lt;/span&gt;&lt;span style=&quot;box-sizing: border-box; color: rgb(51, 51, 51); font-family: sans-serif, sans-serif; text-align: left; background-color: rgb(255, 255, 255); font-size: 0.9375rem;&quot;&gt;80,&amp;nbsp;&lt;/span&gt;&lt;span style=&quot;box-sizing: border-box; color: rgb(51, 51, 51); font-family: sans-serif, sans-serif; text-align: left; background-color: rgb(255, 255, 255); font-size: 0.9375rem;&quot;&gt;29,&amp;nbsp;&lt;/span&gt;&lt;span style=&quot;box-sizing: border-box; color: rgb(51, 51, 51); font-family: sans-serif, sans-serif; text-align: left; background-color: rgb(255, 255, 255); font-size: 0.9375rem;&quot;&gt;13,&amp;nbsp;&lt;/span&gt;&lt;span style=&quot;box-sizing: border-box; color: rgb(51, 51, 51); font-family: sans-serif, sans-serif; text-align: left; background-color: rgb(255, 255, 255); font-size: 0.9375rem;&quot;&gt;22,&amp;nbsp;&lt;/span&gt;&lt;span style=&quot;box-sizing: border-box; color: rgb(51, 51, 51); font-family: sans-serif, sans-serif; text-align: left; background-color: rgb(255, 255, 255); font-size: 0.9375rem;&quot;&gt;31&lt;/span&gt;" style="rounded=1;whiteSpace=wrap;html=1;" vertex="1" parent="crSMvrlmASKqUykDcx5f-1">
          <mxGeometry x="60" y="80" width="310" height="40" as="geometry" />
        </mxCell>
        <mxCell id="crSMvrlmASKqUykDcx5f-3" style="edgeStyle=orthogonalEdgeStyle;rounded=0;orthogonalLoop=1;jettySize=auto;html=1;exitX=0;exitY=1;exitDx=0;exitDy=0;entryX=0.5;entryY=0;entryDx=0;entryDy=0;" edge="1" parent="crSMvrlmASKqUykDcx5f-1" source="crSMvrlmASKqUykDcx5f-5" target="crSMvrlmASKqUykDcx5f-8">
          <mxGeometry relative="1" as="geometry" />
        </mxCell>
        <mxCell id="crSMvrlmASKqUykDcx5f-4" style="edgeStyle=orthogonalEdgeStyle;rounded=0;orthogonalLoop=1;jettySize=auto;html=1;exitX=1;exitY=1;exitDx=0;exitDy=0;entryX=0.5;entryY=0;entryDx=0;entryDy=0;" edge="1" parent="crSMvrlmASKqUykDcx5f-1" source="crSMvrlmASKqUykDcx5f-5" target="crSMvrlmASKqUykDcx5f-21">
          <mxGeometry relative="1" as="geometry" />
        </mxCell>
        <mxCell id="crSMvrlmASKqUykDcx5f-5" value="6" style="ellipse;whiteSpace=wrap;html=1;aspect=fixed;" vertex="1" parent="crSMvrlmASKqUykDcx5f-1">
          <mxGeometry x="90" y="160" width="60" height="60" as="geometry" />
        </mxCell>
        <mxCell id="crSMvrlmASKqUykDcx5f-6" style="edgeStyle=orthogonalEdgeStyle;rounded=0;orthogonalLoop=1;jettySize=auto;html=1;exitX=0;exitY=1;exitDx=0;exitDy=0;entryX=0.5;entryY=0;entryDx=0;entryDy=0;" edge="1" parent="crSMvrlmASKqUykDcx5f-1" source="crSMvrlmASKqUykDcx5f-8" target="crSMvrlmASKqUykDcx5f-11">
          <mxGeometry relative="1" as="geometry" />
        </mxCell>
        <mxCell id="crSMvrlmASKqUykDcx5f-7" style="edgeStyle=orthogonalEdgeStyle;rounded=0;orthogonalLoop=1;jettySize=auto;html=1;exitX=1;exitY=1;exitDx=0;exitDy=0;entryX=0.5;entryY=0;entryDx=0;entryDy=0;" edge="1" parent="crSMvrlmASKqUykDcx5f-1" source="crSMvrlmASKqUykDcx5f-8" target="crSMvrlmASKqUykDcx5f-16">
          <mxGeometry relative="1" as="geometry" />
        </mxCell>
        <mxCell id="crSMvrlmASKqUykDcx5f-8" value="25" style="ellipse;whiteSpace=wrap;html=1;aspect=fixed;" vertex="1" parent="crSMvrlmASKqUykDcx5f-1">
          <mxGeometry x="-280" y="320" width="60" height="60" as="geometry" />
        </mxCell>
        <mxCell id="crSMvrlmASKqUykDcx5f-9" style="edgeStyle=orthogonalEdgeStyle;rounded=0;orthogonalLoop=1;jettySize=auto;html=1;exitX=0;exitY=1;exitDx=0;exitDy=0;entryX=0.5;entryY=0;entryDx=0;entryDy=0;" edge="1" parent="crSMvrlmASKqUykDcx5f-1" source="crSMvrlmASKqUykDcx5f-11" target="crSMvrlmASKqUykDcx5f-12">
          <mxGeometry relative="1" as="geometry" />
        </mxCell>
        <mxCell id="crSMvrlmASKqUykDcx5f-10" style="edgeStyle=orthogonalEdgeStyle;rounded=0;orthogonalLoop=1;jettySize=auto;html=1;exitX=1;exitY=1;exitDx=0;exitDy=0;" edge="1" parent="crSMvrlmASKqUykDcx5f-1" source="crSMvrlmASKqUykDcx5f-11" target="crSMvrlmASKqUykDcx5f-13">
          <mxGeometry relative="1" as="geometry" />
        </mxCell>
        <mxCell id="crSMvrlmASKqUykDcx5f-11" value="7" style="ellipse;whiteSpace=wrap;html=1;aspect=fixed;" vertex="1" parent="crSMvrlmASKqUykDcx5f-1">
          <mxGeometry x="-520" y="410" width="60" height="60" as="geometry" />
        </mxCell>
        <mxCell id="crSMvrlmASKqUykDcx5f-12" value="80" style="ellipse;whiteSpace=wrap;html=1;aspect=fixed;" vertex="1" parent="crSMvrlmASKqUykDcx5f-1">
          <mxGeometry x="-650" y="490" width="60" height="60" as="geometry" />
        </mxCell>
        <mxCell id="crSMvrlmASKqUykDcx5f-13" value="29" style="ellipse;whiteSpace=wrap;html=1;aspect=fixed;" vertex="1" parent="crSMvrlmASKqUykDcx5f-1">
          <mxGeometry x="-385" y="490" width="60" height="60" as="geometry" />
        </mxCell>
        <mxCell id="crSMvrlmASKqUykDcx5f-14" style="edgeStyle=orthogonalEdgeStyle;rounded=0;orthogonalLoop=1;jettySize=auto;html=1;exitX=0;exitY=1;exitDx=0;exitDy=0;entryX=0.5;entryY=0;entryDx=0;entryDy=0;" edge="1" parent="crSMvrlmASKqUykDcx5f-1" source="crSMvrlmASKqUykDcx5f-16" target="crSMvrlmASKqUykDcx5f-17">
          <mxGeometry relative="1" as="geometry" />
        </mxCell>
        <mxCell id="crSMvrlmASKqUykDcx5f-15" style="edgeStyle=orthogonalEdgeStyle;rounded=0;orthogonalLoop=1;jettySize=auto;html=1;exitX=1;exitY=1;exitDx=0;exitDy=0;" edge="1" parent="crSMvrlmASKqUykDcx5f-1" source="crSMvrlmASKqUykDcx5f-16" target="crSMvrlmASKqUykDcx5f-18">
          <mxGeometry relative="1" as="geometry" />
        </mxCell>
        <mxCell id="crSMvrlmASKqUykDcx5f-16" value="16" style="ellipse;whiteSpace=wrap;html=1;aspect=fixed;" vertex="1" parent="crSMvrlmASKqUykDcx5f-1">
          <mxGeometry x="-20" y="410" width="60" height="60" as="geometry" />
        </mxCell>
        <mxCell id="crSMvrlmASKqUykDcx5f-17" value="13" style="ellipse;whiteSpace=wrap;html=1;aspect=fixed;" vertex="1" parent="crSMvrlmASKqUykDcx5f-1">
          <mxGeometry x="-150" y="490" width="60" height="60" as="geometry" />
        </mxCell>
        <mxCell id="crSMvrlmASKqUykDcx5f-18" value="22" style="ellipse;whiteSpace=wrap;html=1;aspect=fixed;" vertex="1" parent="crSMvrlmASKqUykDcx5f-1">
          <mxGeometry x="115" y="490" width="60" height="60" as="geometry" />
        </mxCell>
        <mxCell id="crSMvrlmASKqUykDcx5f-19" style="edgeStyle=orthogonalEdgeStyle;rounded=0;orthogonalLoop=1;jettySize=auto;html=1;exitX=0;exitY=1;exitDx=0;exitDy=0;entryX=0.5;entryY=0;entryDx=0;entryDy=0;" edge="1" parent="crSMvrlmASKqUykDcx5f-1" source="crSMvrlmASKqUykDcx5f-21" target="crSMvrlmASKqUykDcx5f-23">
          <mxGeometry relative="1" as="geometry" />
        </mxCell>
        <mxCell id="crSMvrlmASKqUykDcx5f-20" style="edgeStyle=orthogonalEdgeStyle;rounded=0;orthogonalLoop=1;jettySize=auto;html=1;exitX=1;exitY=1;exitDx=0;exitDy=0;entryX=0.5;entryY=0;entryDx=0;entryDy=0;" edge="1" parent="crSMvrlmASKqUykDcx5f-1" source="crSMvrlmASKqUykDcx5f-21" target="crSMvrlmASKqUykDcx5f-25">
          <mxGeometry relative="1" as="geometry" />
        </mxCell>
        <mxCell id="crSMvrlmASKqUykDcx5f-21" value="1" style="ellipse;whiteSpace=wrap;html=1;aspect=fixed;" vertex="1" parent="crSMvrlmASKqUykDcx5f-1">
          <mxGeometry x="430" y="320" width="60" height="60" as="geometry" />
        </mxCell>
        <mxCell id="crSMvrlmASKqUykDcx5f-22" style="edgeStyle=orthogonalEdgeStyle;rounded=0;orthogonalLoop=1;jettySize=auto;html=1;exitX=0;exitY=1;exitDx=0;exitDy=0;entryX=0.5;entryY=0;entryDx=0;entryDy=0;" edge="1" parent="crSMvrlmASKqUykDcx5f-1" source="crSMvrlmASKqUykDcx5f-23" target="crSMvrlmASKqUykDcx5f-24">
          <mxGeometry relative="1" as="geometry" />
        </mxCell>
        <mxCell id="crSMvrlmASKqUykDcx5f-23" value="31" style="ellipse;whiteSpace=wrap;html=1;aspect=fixed;fillColor=#dae8fc;strokeColor=#6c8ebf;" vertex="1" parent="crSMvrlmASKqUykDcx5f-1">
          <mxGeometry x="300" y="420" width="60" height="60" as="geometry" />
        </mxCell>
        <mxCell id="crSMvrlmASKqUykDcx5f-24" value="19" style="ellipse;whiteSpace=wrap;html=1;aspect=fixed;fillColor=#dae8fc;strokeColor=#6c8ebf;" vertex="1" parent="crSMvrlmASKqUykDcx5f-1">
          <mxGeometry x="220" y="490" width="60" height="60" as="geometry" />
        </mxCell>
        <mxCell id="crSMvrlmASKqUykDcx5f-25" value="3" style="ellipse;whiteSpace=wrap;html=1;aspect=fixed;" vertex="1" parent="crSMvrlmASKqUykDcx5f-1">
          <mxGeometry x="570" y="430" width="60" height="60" as="geometry" />
        </mxCell>
        <mxCell id="crSMvrlmASKqUykDcx5f-26" value="12 Elementos" style="text;html=1;align=center;verticalAlign=middle;resizable=0;points=[];autosize=1;strokeColor=none;fillColor=none;" vertex="1" parent="crSMvrlmASKqUykDcx5f-1">
          <mxGeometry x="280" y="50" width="100" height="30" as="geometry" />
        </mxCell>
      </root>
    </mxGraphModel>
  </diagram>
  <diagram name="3" id="yU4ZyOb0heGUP9x3gUHc">
    <mxGraphModel dx="2639" dy="1136" grid="1" gridSize="10" guides="1" tooltips="1" connect="1" arrows="1" fold="1" page="1" pageScale="1" pageWidth="850" pageHeight="1100" math="0" shadow="0">
      <root>
        <mxCell id="SCZpq4BP9e29ijEahXXN-0" />
        <mxCell id="SCZpq4BP9e29ijEahXXN-1" parent="SCZpq4BP9e29ijEahXXN-0" />
        <mxCell id="SCZpq4BP9e29ijEahXXN-2" value="&lt;span style=&quot;color: rgb(51, 51, 51); font-family: sans-serif, sans-serif; font-size: 14.44px; text-align: left; background-color: rgb(255, 255, 255);&quot;&gt;6,&amp;nbsp;&lt;/span&gt;&lt;span style=&quot;box-sizing: border-box; color: rgb(51, 51, 51); font-family: sans-serif, sans-serif; text-align: left; background-color: rgb(255, 255, 255); font-size: 0.9375rem;&quot;&gt;25,&amp;nbsp;&lt;/span&gt;&lt;span style=&quot;box-sizing: border-box; color: rgb(51, 51, 51); font-family: sans-serif, sans-serif; text-align: left; background-color: rgb(255, 255, 255); font-size: 0.9375rem;&quot;&gt;1,&amp;nbsp;&lt;/span&gt;&lt;span style=&quot;box-sizing: border-box; color: rgb(51, 51, 51); font-family: sans-serif, sans-serif; text-align: left; background-color: rgb(255, 255, 255); font-size: 0.9375rem;&quot;&gt;7,&amp;nbsp;&lt;/span&gt;&lt;span style=&quot;box-sizing: border-box; color: rgb(51, 51, 51); font-family: sans-serif, sans-serif; text-align: left; background-color: rgb(255, 255, 255); font-size: 0.9375rem;&quot;&gt;16,&amp;nbsp;&lt;/span&gt;&lt;span style=&quot;box-sizing: border-box; color: rgb(51, 51, 51); font-family: sans-serif, sans-serif; text-align: left; background-color: rgb(255, 255, 255); font-size: 0.9375rem;&quot;&gt;19,&amp;nbsp;&lt;/span&gt;&lt;span style=&quot;box-sizing: border-box; color: rgb(51, 51, 51); font-family: sans-serif, sans-serif; text-align: left; background-color: rgb(255, 255, 255); font-size: 0.9375rem;&quot;&gt;3,&amp;nbsp;&lt;/span&gt;&lt;span style=&quot;box-sizing: border-box; color: rgb(51, 51, 51); font-family: sans-serif, sans-serif; text-align: left; background-color: rgb(255, 255, 255); font-size: 0.9375rem;&quot;&gt;80,&amp;nbsp;&lt;/span&gt;&lt;span style=&quot;box-sizing: border-box; color: rgb(51, 51, 51); font-family: sans-serif, sans-serif; text-align: left; background-color: rgb(255, 255, 255); font-size: 0.9375rem;&quot;&gt;29,&amp;nbsp;&lt;/span&gt;&lt;span style=&quot;box-sizing: border-box; color: rgb(51, 51, 51); font-family: sans-serif, sans-serif; text-align: left; background-color: rgb(255, 255, 255); font-size: 0.9375rem;&quot;&gt;13,&amp;nbsp;&lt;/span&gt;&lt;span style=&quot;box-sizing: border-box; color: rgb(51, 51, 51); font-family: sans-serif, sans-serif; text-align: left; background-color: rgb(255, 255, 255); font-size: 0.9375rem;&quot;&gt;22,&amp;nbsp;&lt;/span&gt;&lt;span style=&quot;box-sizing: border-box; color: rgb(51, 51, 51); font-family: sans-serif, sans-serif; text-align: left; background-color: rgb(255, 255, 255); font-size: 0.9375rem;&quot;&gt;31&lt;/span&gt;" style="rounded=1;whiteSpace=wrap;html=1;" vertex="1" parent="SCZpq4BP9e29ijEahXXN-1">
          <mxGeometry x="60" y="80" width="310" height="40" as="geometry" />
        </mxCell>
        <mxCell id="SCZpq4BP9e29ijEahXXN-3" style="edgeStyle=orthogonalEdgeStyle;rounded=0;orthogonalLoop=1;jettySize=auto;html=1;exitX=0;exitY=1;exitDx=0;exitDy=0;entryX=0.5;entryY=0;entryDx=0;entryDy=0;" edge="1" parent="SCZpq4BP9e29ijEahXXN-1" source="SCZpq4BP9e29ijEahXXN-5" target="SCZpq4BP9e29ijEahXXN-8">
          <mxGeometry relative="1" as="geometry" />
        </mxCell>
        <mxCell id="SCZpq4BP9e29ijEahXXN-4" style="edgeStyle=orthogonalEdgeStyle;rounded=0;orthogonalLoop=1;jettySize=auto;html=1;exitX=1;exitY=1;exitDx=0;exitDy=0;entryX=0.5;entryY=0;entryDx=0;entryDy=0;" edge="1" parent="SCZpq4BP9e29ijEahXXN-1" source="SCZpq4BP9e29ijEahXXN-5" target="SCZpq4BP9e29ijEahXXN-21">
          <mxGeometry relative="1" as="geometry" />
        </mxCell>
        <mxCell id="SCZpq4BP9e29ijEahXXN-5" value="6" style="ellipse;whiteSpace=wrap;html=1;aspect=fixed;" vertex="1" parent="SCZpq4BP9e29ijEahXXN-1">
          <mxGeometry x="90" y="160" width="60" height="60" as="geometry" />
        </mxCell>
        <mxCell id="SCZpq4BP9e29ijEahXXN-6" style="edgeStyle=orthogonalEdgeStyle;rounded=0;orthogonalLoop=1;jettySize=auto;html=1;exitX=0;exitY=1;exitDx=0;exitDy=0;entryX=0.5;entryY=0;entryDx=0;entryDy=0;" edge="1" parent="SCZpq4BP9e29ijEahXXN-1" source="SCZpq4BP9e29ijEahXXN-8" target="SCZpq4BP9e29ijEahXXN-11">
          <mxGeometry relative="1" as="geometry" />
        </mxCell>
        <mxCell id="SCZpq4BP9e29ijEahXXN-7" style="edgeStyle=orthogonalEdgeStyle;rounded=0;orthogonalLoop=1;jettySize=auto;html=1;exitX=1;exitY=1;exitDx=0;exitDy=0;entryX=0.5;entryY=0;entryDx=0;entryDy=0;" edge="1" parent="SCZpq4BP9e29ijEahXXN-1" source="SCZpq4BP9e29ijEahXXN-8" target="SCZpq4BP9e29ijEahXXN-16">
          <mxGeometry relative="1" as="geometry" />
        </mxCell>
        <mxCell id="SCZpq4BP9e29ijEahXXN-8" value="25" style="ellipse;whiteSpace=wrap;html=1;aspect=fixed;" vertex="1" parent="SCZpq4BP9e29ijEahXXN-1">
          <mxGeometry x="-280" y="320" width="60" height="60" as="geometry" />
        </mxCell>
        <mxCell id="SCZpq4BP9e29ijEahXXN-9" style="edgeStyle=orthogonalEdgeStyle;rounded=0;orthogonalLoop=1;jettySize=auto;html=1;exitX=0;exitY=1;exitDx=0;exitDy=0;entryX=0.5;entryY=0;entryDx=0;entryDy=0;" edge="1" parent="SCZpq4BP9e29ijEahXXN-1" source="SCZpq4BP9e29ijEahXXN-11" target="SCZpq4BP9e29ijEahXXN-12">
          <mxGeometry relative="1" as="geometry" />
        </mxCell>
        <mxCell id="SCZpq4BP9e29ijEahXXN-10" style="edgeStyle=orthogonalEdgeStyle;rounded=0;orthogonalLoop=1;jettySize=auto;html=1;exitX=1;exitY=1;exitDx=0;exitDy=0;" edge="1" parent="SCZpq4BP9e29ijEahXXN-1" source="SCZpq4BP9e29ijEahXXN-11" target="SCZpq4BP9e29ijEahXXN-13">
          <mxGeometry relative="1" as="geometry" />
        </mxCell>
        <mxCell id="SCZpq4BP9e29ijEahXXN-11" value="7" style="ellipse;whiteSpace=wrap;html=1;aspect=fixed;" vertex="1" parent="SCZpq4BP9e29ijEahXXN-1">
          <mxGeometry x="-520" y="410" width="60" height="60" as="geometry" />
        </mxCell>
        <mxCell id="SCZpq4BP9e29ijEahXXN-12" value="80" style="ellipse;whiteSpace=wrap;html=1;aspect=fixed;" vertex="1" parent="SCZpq4BP9e29ijEahXXN-1">
          <mxGeometry x="-650" y="490" width="60" height="60" as="geometry" />
        </mxCell>
        <mxCell id="SCZpq4BP9e29ijEahXXN-13" value="29" style="ellipse;whiteSpace=wrap;html=1;aspect=fixed;" vertex="1" parent="SCZpq4BP9e29ijEahXXN-1">
          <mxGeometry x="-385" y="490" width="60" height="60" as="geometry" />
        </mxCell>
        <mxCell id="SCZpq4BP9e29ijEahXXN-14" style="edgeStyle=orthogonalEdgeStyle;rounded=0;orthogonalLoop=1;jettySize=auto;html=1;exitX=0;exitY=1;exitDx=0;exitDy=0;entryX=0.5;entryY=0;entryDx=0;entryDy=0;" edge="1" parent="SCZpq4BP9e29ijEahXXN-1" source="SCZpq4BP9e29ijEahXXN-16" target="SCZpq4BP9e29ijEahXXN-17">
          <mxGeometry relative="1" as="geometry" />
        </mxCell>
        <mxCell id="SCZpq4BP9e29ijEahXXN-15" style="edgeStyle=orthogonalEdgeStyle;rounded=0;orthogonalLoop=1;jettySize=auto;html=1;exitX=1;exitY=1;exitDx=0;exitDy=0;" edge="1" parent="SCZpq4BP9e29ijEahXXN-1" source="SCZpq4BP9e29ijEahXXN-16" target="SCZpq4BP9e29ijEahXXN-18">
          <mxGeometry relative="1" as="geometry" />
        </mxCell>
        <mxCell id="SCZpq4BP9e29ijEahXXN-16" value="22" style="ellipse;whiteSpace=wrap;html=1;aspect=fixed;fillColor=#dae8fc;strokeColor=#6c8ebf;" vertex="1" parent="SCZpq4BP9e29ijEahXXN-1">
          <mxGeometry x="-20" y="410" width="60" height="60" as="geometry" />
        </mxCell>
        <mxCell id="SCZpq4BP9e29ijEahXXN-17" value="13" style="ellipse;whiteSpace=wrap;html=1;aspect=fixed;" vertex="1" parent="SCZpq4BP9e29ijEahXXN-1">
          <mxGeometry x="-150" y="490" width="60" height="60" as="geometry" />
        </mxCell>
        <mxCell id="SCZpq4BP9e29ijEahXXN-18" value="16" style="ellipse;whiteSpace=wrap;html=1;aspect=fixed;fillColor=#dae8fc;strokeColor=#6c8ebf;" vertex="1" parent="SCZpq4BP9e29ijEahXXN-1">
          <mxGeometry x="115" y="490" width="60" height="60" as="geometry" />
        </mxCell>
        <mxCell id="SCZpq4BP9e29ijEahXXN-19" style="edgeStyle=orthogonalEdgeStyle;rounded=0;orthogonalLoop=1;jettySize=auto;html=1;exitX=0;exitY=1;exitDx=0;exitDy=0;entryX=0.5;entryY=0;entryDx=0;entryDy=0;" edge="1" parent="SCZpq4BP9e29ijEahXXN-1" source="SCZpq4BP9e29ijEahXXN-21" target="SCZpq4BP9e29ijEahXXN-23">
          <mxGeometry relative="1" as="geometry" />
        </mxCell>
        <mxCell id="SCZpq4BP9e29ijEahXXN-20" style="edgeStyle=orthogonalEdgeStyle;rounded=0;orthogonalLoop=1;jettySize=auto;html=1;exitX=1;exitY=1;exitDx=0;exitDy=0;entryX=0.5;entryY=0;entryDx=0;entryDy=0;" edge="1" parent="SCZpq4BP9e29ijEahXXN-1" source="SCZpq4BP9e29ijEahXXN-21" target="SCZpq4BP9e29ijEahXXN-25">
          <mxGeometry relative="1" as="geometry" />
        </mxCell>
        <mxCell id="SCZpq4BP9e29ijEahXXN-21" value="1" style="ellipse;whiteSpace=wrap;html=1;aspect=fixed;" vertex="1" parent="SCZpq4BP9e29ijEahXXN-1">
          <mxGeometry x="430" y="320" width="60" height="60" as="geometry" />
        </mxCell>
        <mxCell id="SCZpq4BP9e29ijEahXXN-22" style="edgeStyle=orthogonalEdgeStyle;rounded=0;orthogonalLoop=1;jettySize=auto;html=1;exitX=0;exitY=1;exitDx=0;exitDy=0;entryX=0.5;entryY=0;entryDx=0;entryDy=0;" edge="1" parent="SCZpq4BP9e29ijEahXXN-1" source="SCZpq4BP9e29ijEahXXN-23" target="SCZpq4BP9e29ijEahXXN-24">
          <mxGeometry relative="1" as="geometry" />
        </mxCell>
        <mxCell id="SCZpq4BP9e29ijEahXXN-23" value="31" style="ellipse;whiteSpace=wrap;html=1;aspect=fixed;" vertex="1" parent="SCZpq4BP9e29ijEahXXN-1">
          <mxGeometry x="300" y="420" width="60" height="60" as="geometry" />
        </mxCell>
        <mxCell id="SCZpq4BP9e29ijEahXXN-24" value="19" style="ellipse;whiteSpace=wrap;html=1;aspect=fixed;" vertex="1" parent="SCZpq4BP9e29ijEahXXN-1">
          <mxGeometry x="220" y="490" width="60" height="60" as="geometry" />
        </mxCell>
        <mxCell id="SCZpq4BP9e29ijEahXXN-25" value="3" style="ellipse;whiteSpace=wrap;html=1;aspect=fixed;" vertex="1" parent="SCZpq4BP9e29ijEahXXN-1">
          <mxGeometry x="570" y="430" width="60" height="60" as="geometry" />
        </mxCell>
        <mxCell id="SCZpq4BP9e29ijEahXXN-26" value="12 Elementos" style="text;html=1;align=center;verticalAlign=middle;resizable=0;points=[];autosize=1;strokeColor=none;fillColor=none;" vertex="1" parent="SCZpq4BP9e29ijEahXXN-1">
          <mxGeometry x="280" y="50" width="100" height="30" as="geometry" />
        </mxCell>
      </root>
    </mxGraphModel>
  </diagram>
  <diagram name="4" id="7BZb1efmz4cdDFkOExdm">
    <mxGraphModel dx="2639" dy="1136" grid="1" gridSize="10" guides="1" tooltips="1" connect="1" arrows="1" fold="1" page="1" pageScale="1" pageWidth="850" pageHeight="1100" math="0" shadow="0">
      <root>
        <mxCell id="zE6CkKxLO2g7wfxpN8ca-0" />
        <mxCell id="zE6CkKxLO2g7wfxpN8ca-1" parent="zE6CkKxLO2g7wfxpN8ca-0" />
        <mxCell id="zE6CkKxLO2g7wfxpN8ca-2" value="&lt;span style=&quot;color: rgb(51, 51, 51); font-family: sans-serif, sans-serif; font-size: 14.44px; text-align: left; background-color: rgb(255, 255, 255);&quot;&gt;6,&amp;nbsp;&lt;/span&gt;&lt;span style=&quot;box-sizing: border-box; color: rgb(51, 51, 51); font-family: sans-serif, sans-serif; text-align: left; background-color: rgb(255, 255, 255); font-size: 0.9375rem;&quot;&gt;25,&amp;nbsp;&lt;/span&gt;&lt;span style=&quot;box-sizing: border-box; color: rgb(51, 51, 51); font-family: sans-serif, sans-serif; text-align: left; background-color: rgb(255, 255, 255); font-size: 0.9375rem;&quot;&gt;1,&amp;nbsp;&lt;/span&gt;&lt;span style=&quot;box-sizing: border-box; color: rgb(51, 51, 51); font-family: sans-serif, sans-serif; text-align: left; background-color: rgb(255, 255, 255); font-size: 0.9375rem;&quot;&gt;7,&amp;nbsp;&lt;/span&gt;&lt;span style=&quot;box-sizing: border-box; color: rgb(51, 51, 51); font-family: sans-serif, sans-serif; text-align: left; background-color: rgb(255, 255, 255); font-size: 0.9375rem;&quot;&gt;16,&amp;nbsp;&lt;/span&gt;&lt;span style=&quot;box-sizing: border-box; color: rgb(51, 51, 51); font-family: sans-serif, sans-serif; text-align: left; background-color: rgb(255, 255, 255); font-size: 0.9375rem;&quot;&gt;19,&amp;nbsp;&lt;/span&gt;&lt;span style=&quot;box-sizing: border-box; color: rgb(51, 51, 51); font-family: sans-serif, sans-serif; text-align: left; background-color: rgb(255, 255, 255); font-size: 0.9375rem;&quot;&gt;3,&amp;nbsp;&lt;/span&gt;&lt;span style=&quot;box-sizing: border-box; color: rgb(51, 51, 51); font-family: sans-serif, sans-serif; text-align: left; background-color: rgb(255, 255, 255); font-size: 0.9375rem;&quot;&gt;80,&amp;nbsp;&lt;/span&gt;&lt;span style=&quot;box-sizing: border-box; color: rgb(51, 51, 51); font-family: sans-serif, sans-serif; text-align: left; background-color: rgb(255, 255, 255); font-size: 0.9375rem;&quot;&gt;29,&amp;nbsp;&lt;/span&gt;&lt;span style=&quot;box-sizing: border-box; color: rgb(51, 51, 51); font-family: sans-serif, sans-serif; text-align: left; background-color: rgb(255, 255, 255); font-size: 0.9375rem;&quot;&gt;13,&amp;nbsp;&lt;/span&gt;&lt;span style=&quot;box-sizing: border-box; color: rgb(51, 51, 51); font-family: sans-serif, sans-serif; text-align: left; background-color: rgb(255, 255, 255); font-size: 0.9375rem;&quot;&gt;22,&amp;nbsp;&lt;/span&gt;&lt;span style=&quot;box-sizing: border-box; color: rgb(51, 51, 51); font-family: sans-serif, sans-serif; text-align: left; background-color: rgb(255, 255, 255); font-size: 0.9375rem;&quot;&gt;31&lt;/span&gt;" style="rounded=1;whiteSpace=wrap;html=1;" vertex="1" parent="zE6CkKxLO2g7wfxpN8ca-1">
          <mxGeometry x="60" y="80" width="310" height="40" as="geometry" />
        </mxCell>
        <mxCell id="zE6CkKxLO2g7wfxpN8ca-3" style="edgeStyle=orthogonalEdgeStyle;rounded=0;orthogonalLoop=1;jettySize=auto;html=1;exitX=0;exitY=1;exitDx=0;exitDy=0;entryX=0.5;entryY=0;entryDx=0;entryDy=0;" edge="1" parent="zE6CkKxLO2g7wfxpN8ca-1" source="zE6CkKxLO2g7wfxpN8ca-5" target="zE6CkKxLO2g7wfxpN8ca-8">
          <mxGeometry relative="1" as="geometry" />
        </mxCell>
        <mxCell id="zE6CkKxLO2g7wfxpN8ca-4" style="edgeStyle=orthogonalEdgeStyle;rounded=0;orthogonalLoop=1;jettySize=auto;html=1;exitX=1;exitY=1;exitDx=0;exitDy=0;entryX=0.5;entryY=0;entryDx=0;entryDy=0;" edge="1" parent="zE6CkKxLO2g7wfxpN8ca-1" source="zE6CkKxLO2g7wfxpN8ca-5" target="zE6CkKxLO2g7wfxpN8ca-21">
          <mxGeometry relative="1" as="geometry" />
        </mxCell>
        <mxCell id="zE6CkKxLO2g7wfxpN8ca-5" value="6" style="ellipse;whiteSpace=wrap;html=1;aspect=fixed;" vertex="1" parent="zE6CkKxLO2g7wfxpN8ca-1">
          <mxGeometry x="90" y="160" width="60" height="60" as="geometry" />
        </mxCell>
        <mxCell id="zE6CkKxLO2g7wfxpN8ca-6" style="edgeStyle=orthogonalEdgeStyle;rounded=0;orthogonalLoop=1;jettySize=auto;html=1;exitX=0;exitY=1;exitDx=0;exitDy=0;entryX=0.5;entryY=0;entryDx=0;entryDy=0;" edge="1" parent="zE6CkKxLO2g7wfxpN8ca-1" source="zE6CkKxLO2g7wfxpN8ca-8" target="zE6CkKxLO2g7wfxpN8ca-11">
          <mxGeometry relative="1" as="geometry" />
        </mxCell>
        <mxCell id="zE6CkKxLO2g7wfxpN8ca-7" style="edgeStyle=orthogonalEdgeStyle;rounded=0;orthogonalLoop=1;jettySize=auto;html=1;exitX=1;exitY=1;exitDx=0;exitDy=0;entryX=0.5;entryY=0;entryDx=0;entryDy=0;" edge="1" parent="zE6CkKxLO2g7wfxpN8ca-1" source="zE6CkKxLO2g7wfxpN8ca-8" target="zE6CkKxLO2g7wfxpN8ca-16">
          <mxGeometry relative="1" as="geometry" />
        </mxCell>
        <mxCell id="zE6CkKxLO2g7wfxpN8ca-8" value="25" style="ellipse;whiteSpace=wrap;html=1;aspect=fixed;" vertex="1" parent="zE6CkKxLO2g7wfxpN8ca-1">
          <mxGeometry x="-280" y="320" width="60" height="60" as="geometry" />
        </mxCell>
        <mxCell id="zE6CkKxLO2g7wfxpN8ca-9" style="edgeStyle=orthogonalEdgeStyle;rounded=0;orthogonalLoop=1;jettySize=auto;html=1;exitX=0;exitY=1;exitDx=0;exitDy=0;entryX=0.5;entryY=0;entryDx=0;entryDy=0;" edge="1" parent="zE6CkKxLO2g7wfxpN8ca-1" source="zE6CkKxLO2g7wfxpN8ca-11" target="zE6CkKxLO2g7wfxpN8ca-12">
          <mxGeometry relative="1" as="geometry" />
        </mxCell>
        <mxCell id="zE6CkKxLO2g7wfxpN8ca-10" style="edgeStyle=orthogonalEdgeStyle;rounded=0;orthogonalLoop=1;jettySize=auto;html=1;exitX=1;exitY=1;exitDx=0;exitDy=0;" edge="1" parent="zE6CkKxLO2g7wfxpN8ca-1" source="zE6CkKxLO2g7wfxpN8ca-11" target="zE6CkKxLO2g7wfxpN8ca-13">
          <mxGeometry relative="1" as="geometry" />
        </mxCell>
        <mxCell id="zE6CkKxLO2g7wfxpN8ca-11" value="80" style="ellipse;whiteSpace=wrap;html=1;aspect=fixed;fillColor=#dae8fc;strokeColor=#6c8ebf;" vertex="1" parent="zE6CkKxLO2g7wfxpN8ca-1">
          <mxGeometry x="-520" y="410" width="60" height="60" as="geometry" />
        </mxCell>
        <mxCell id="zE6CkKxLO2g7wfxpN8ca-12" value="7" style="ellipse;whiteSpace=wrap;html=1;aspect=fixed;fillColor=#dae8fc;strokeColor=#6c8ebf;" vertex="1" parent="zE6CkKxLO2g7wfxpN8ca-1">
          <mxGeometry x="-650" y="490" width="60" height="60" as="geometry" />
        </mxCell>
        <mxCell id="zE6CkKxLO2g7wfxpN8ca-13" value="29" style="ellipse;whiteSpace=wrap;html=1;aspect=fixed;" vertex="1" parent="zE6CkKxLO2g7wfxpN8ca-1">
          <mxGeometry x="-385" y="490" width="60" height="60" as="geometry" />
        </mxCell>
        <mxCell id="zE6CkKxLO2g7wfxpN8ca-14" style="edgeStyle=orthogonalEdgeStyle;rounded=0;orthogonalLoop=1;jettySize=auto;html=1;exitX=0;exitY=1;exitDx=0;exitDy=0;entryX=0.5;entryY=0;entryDx=0;entryDy=0;" edge="1" parent="zE6CkKxLO2g7wfxpN8ca-1" source="zE6CkKxLO2g7wfxpN8ca-16" target="zE6CkKxLO2g7wfxpN8ca-17">
          <mxGeometry relative="1" as="geometry" />
        </mxCell>
        <mxCell id="zE6CkKxLO2g7wfxpN8ca-15" style="edgeStyle=orthogonalEdgeStyle;rounded=0;orthogonalLoop=1;jettySize=auto;html=1;exitX=1;exitY=1;exitDx=0;exitDy=0;" edge="1" parent="zE6CkKxLO2g7wfxpN8ca-1" source="zE6CkKxLO2g7wfxpN8ca-16" target="zE6CkKxLO2g7wfxpN8ca-18">
          <mxGeometry relative="1" as="geometry" />
        </mxCell>
        <mxCell id="zE6CkKxLO2g7wfxpN8ca-16" value="22" style="ellipse;whiteSpace=wrap;html=1;aspect=fixed;" vertex="1" parent="zE6CkKxLO2g7wfxpN8ca-1">
          <mxGeometry x="-20" y="410" width="60" height="60" as="geometry" />
        </mxCell>
        <mxCell id="zE6CkKxLO2g7wfxpN8ca-17" value="13" style="ellipse;whiteSpace=wrap;html=1;aspect=fixed;" vertex="1" parent="zE6CkKxLO2g7wfxpN8ca-1">
          <mxGeometry x="-150" y="490" width="60" height="60" as="geometry" />
        </mxCell>
        <mxCell id="zE6CkKxLO2g7wfxpN8ca-18" value="16" style="ellipse;whiteSpace=wrap;html=1;aspect=fixed;" vertex="1" parent="zE6CkKxLO2g7wfxpN8ca-1">
          <mxGeometry x="115" y="490" width="60" height="60" as="geometry" />
        </mxCell>
        <mxCell id="zE6CkKxLO2g7wfxpN8ca-19" style="edgeStyle=orthogonalEdgeStyle;rounded=0;orthogonalLoop=1;jettySize=auto;html=1;exitX=0;exitY=1;exitDx=0;exitDy=0;entryX=0.5;entryY=0;entryDx=0;entryDy=0;" edge="1" parent="zE6CkKxLO2g7wfxpN8ca-1" source="zE6CkKxLO2g7wfxpN8ca-21" target="zE6CkKxLO2g7wfxpN8ca-23">
          <mxGeometry relative="1" as="geometry" />
        </mxCell>
        <mxCell id="zE6CkKxLO2g7wfxpN8ca-20" style="edgeStyle=orthogonalEdgeStyle;rounded=0;orthogonalLoop=1;jettySize=auto;html=1;exitX=1;exitY=1;exitDx=0;exitDy=0;entryX=0.5;entryY=0;entryDx=0;entryDy=0;" edge="1" parent="zE6CkKxLO2g7wfxpN8ca-1" source="zE6CkKxLO2g7wfxpN8ca-21" target="zE6CkKxLO2g7wfxpN8ca-25">
          <mxGeometry relative="1" as="geometry" />
        </mxCell>
        <mxCell id="zE6CkKxLO2g7wfxpN8ca-21" value="1" style="ellipse;whiteSpace=wrap;html=1;aspect=fixed;" vertex="1" parent="zE6CkKxLO2g7wfxpN8ca-1">
          <mxGeometry x="430" y="320" width="60" height="60" as="geometry" />
        </mxCell>
        <mxCell id="zE6CkKxLO2g7wfxpN8ca-22" style="edgeStyle=orthogonalEdgeStyle;rounded=0;orthogonalLoop=1;jettySize=auto;html=1;exitX=0;exitY=1;exitDx=0;exitDy=0;entryX=0.5;entryY=0;entryDx=0;entryDy=0;" edge="1" parent="zE6CkKxLO2g7wfxpN8ca-1" source="zE6CkKxLO2g7wfxpN8ca-23" target="zE6CkKxLO2g7wfxpN8ca-24">
          <mxGeometry relative="1" as="geometry" />
        </mxCell>
        <mxCell id="zE6CkKxLO2g7wfxpN8ca-23" value="31" style="ellipse;whiteSpace=wrap;html=1;aspect=fixed;" vertex="1" parent="zE6CkKxLO2g7wfxpN8ca-1">
          <mxGeometry x="300" y="420" width="60" height="60" as="geometry" />
        </mxCell>
        <mxCell id="zE6CkKxLO2g7wfxpN8ca-24" value="19" style="ellipse;whiteSpace=wrap;html=1;aspect=fixed;" vertex="1" parent="zE6CkKxLO2g7wfxpN8ca-1">
          <mxGeometry x="220" y="490" width="60" height="60" as="geometry" />
        </mxCell>
        <mxCell id="zE6CkKxLO2g7wfxpN8ca-25" value="3" style="ellipse;whiteSpace=wrap;html=1;aspect=fixed;" vertex="1" parent="zE6CkKxLO2g7wfxpN8ca-1">
          <mxGeometry x="570" y="430" width="60" height="60" as="geometry" />
        </mxCell>
        <mxCell id="zE6CkKxLO2g7wfxpN8ca-26" value="12 Elementos" style="text;html=1;align=center;verticalAlign=middle;resizable=0;points=[];autosize=1;strokeColor=none;fillColor=none;" vertex="1" parent="zE6CkKxLO2g7wfxpN8ca-1">
          <mxGeometry x="280" y="50" width="100" height="30" as="geometry" />
        </mxCell>
      </root>
    </mxGraphModel>
  </diagram>
  <diagram name="5" id="Ie5XQD4RG0TyPxf4xIK8">
    <mxGraphModel dx="2639" dy="1136" grid="1" gridSize="10" guides="1" tooltips="1" connect="1" arrows="1" fold="1" page="1" pageScale="1" pageWidth="850" pageHeight="1100" math="0" shadow="0">
      <root>
        <mxCell id="9DzU3D7UWEempZUTOHUT-0" />
        <mxCell id="9DzU3D7UWEempZUTOHUT-1" parent="9DzU3D7UWEempZUTOHUT-0" />
        <mxCell id="9DzU3D7UWEempZUTOHUT-2" value="&lt;span style=&quot;color: rgb(51, 51, 51); font-family: sans-serif, sans-serif; font-size: 14.44px; text-align: left; background-color: rgb(255, 255, 255);&quot;&gt;6,&amp;nbsp;&lt;/span&gt;&lt;span style=&quot;box-sizing: border-box; color: rgb(51, 51, 51); font-family: sans-serif, sans-serif; text-align: left; background-color: rgb(255, 255, 255); font-size: 0.9375rem;&quot;&gt;25,&amp;nbsp;&lt;/span&gt;&lt;span style=&quot;box-sizing: border-box; color: rgb(51, 51, 51); font-family: sans-serif, sans-serif; text-align: left; background-color: rgb(255, 255, 255); font-size: 0.9375rem;&quot;&gt;1,&amp;nbsp;&lt;/span&gt;&lt;span style=&quot;box-sizing: border-box; color: rgb(51, 51, 51); font-family: sans-serif, sans-serif; text-align: left; background-color: rgb(255, 255, 255); font-size: 0.9375rem;&quot;&gt;7,&amp;nbsp;&lt;/span&gt;&lt;span style=&quot;box-sizing: border-box; color: rgb(51, 51, 51); font-family: sans-serif, sans-serif; text-align: left; background-color: rgb(255, 255, 255); font-size: 0.9375rem;&quot;&gt;16,&amp;nbsp;&lt;/span&gt;&lt;span style=&quot;box-sizing: border-box; color: rgb(51, 51, 51); font-family: sans-serif, sans-serif; text-align: left; background-color: rgb(255, 255, 255); font-size: 0.9375rem;&quot;&gt;19,&amp;nbsp;&lt;/span&gt;&lt;span style=&quot;box-sizing: border-box; color: rgb(51, 51, 51); font-family: sans-serif, sans-serif; text-align: left; background-color: rgb(255, 255, 255); font-size: 0.9375rem;&quot;&gt;3,&amp;nbsp;&lt;/span&gt;&lt;span style=&quot;box-sizing: border-box; color: rgb(51, 51, 51); font-family: sans-serif, sans-serif; text-align: left; background-color: rgb(255, 255, 255); font-size: 0.9375rem;&quot;&gt;80,&amp;nbsp;&lt;/span&gt;&lt;span style=&quot;box-sizing: border-box; color: rgb(51, 51, 51); font-family: sans-serif, sans-serif; text-align: left; background-color: rgb(255, 255, 255); font-size: 0.9375rem;&quot;&gt;29,&amp;nbsp;&lt;/span&gt;&lt;span style=&quot;box-sizing: border-box; color: rgb(51, 51, 51); font-family: sans-serif, sans-serif; text-align: left; background-color: rgb(255, 255, 255); font-size: 0.9375rem;&quot;&gt;13,&amp;nbsp;&lt;/span&gt;&lt;span style=&quot;box-sizing: border-box; color: rgb(51, 51, 51); font-family: sans-serif, sans-serif; text-align: left; background-color: rgb(255, 255, 255); font-size: 0.9375rem;&quot;&gt;22,&amp;nbsp;&lt;/span&gt;&lt;span style=&quot;box-sizing: border-box; color: rgb(51, 51, 51); font-family: sans-serif, sans-serif; text-align: left; background-color: rgb(255, 255, 255); font-size: 0.9375rem;&quot;&gt;31&lt;/span&gt;" style="rounded=1;whiteSpace=wrap;html=1;" vertex="1" parent="9DzU3D7UWEempZUTOHUT-1">
          <mxGeometry x="60" y="80" width="310" height="40" as="geometry" />
        </mxCell>
        <mxCell id="9DzU3D7UWEempZUTOHUT-3" style="edgeStyle=orthogonalEdgeStyle;rounded=0;orthogonalLoop=1;jettySize=auto;html=1;exitX=0;exitY=1;exitDx=0;exitDy=0;entryX=0.5;entryY=0;entryDx=0;entryDy=0;" edge="1" parent="9DzU3D7UWEempZUTOHUT-1" source="9DzU3D7UWEempZUTOHUT-5" target="9DzU3D7UWEempZUTOHUT-8">
          <mxGeometry relative="1" as="geometry" />
        </mxCell>
        <mxCell id="9DzU3D7UWEempZUTOHUT-4" style="edgeStyle=orthogonalEdgeStyle;rounded=0;orthogonalLoop=1;jettySize=auto;html=1;exitX=1;exitY=1;exitDx=0;exitDy=0;entryX=0.5;entryY=0;entryDx=0;entryDy=0;" edge="1" parent="9DzU3D7UWEempZUTOHUT-1" source="9DzU3D7UWEempZUTOHUT-5" target="9DzU3D7UWEempZUTOHUT-21">
          <mxGeometry relative="1" as="geometry" />
        </mxCell>
        <mxCell id="9DzU3D7UWEempZUTOHUT-5" value="6" style="ellipse;whiteSpace=wrap;html=1;aspect=fixed;" vertex="1" parent="9DzU3D7UWEempZUTOHUT-1">
          <mxGeometry x="90" y="160" width="60" height="60" as="geometry" />
        </mxCell>
        <mxCell id="9DzU3D7UWEempZUTOHUT-6" style="edgeStyle=orthogonalEdgeStyle;rounded=0;orthogonalLoop=1;jettySize=auto;html=1;exitX=0;exitY=1;exitDx=0;exitDy=0;entryX=0.5;entryY=0;entryDx=0;entryDy=0;" edge="1" parent="9DzU3D7UWEempZUTOHUT-1" source="9DzU3D7UWEempZUTOHUT-8" target="9DzU3D7UWEempZUTOHUT-11">
          <mxGeometry relative="1" as="geometry" />
        </mxCell>
        <mxCell id="9DzU3D7UWEempZUTOHUT-7" style="edgeStyle=orthogonalEdgeStyle;rounded=0;orthogonalLoop=1;jettySize=auto;html=1;exitX=1;exitY=1;exitDx=0;exitDy=0;entryX=0.5;entryY=0;entryDx=0;entryDy=0;" edge="1" parent="9DzU3D7UWEempZUTOHUT-1" source="9DzU3D7UWEempZUTOHUT-8" target="9DzU3D7UWEempZUTOHUT-16">
          <mxGeometry relative="1" as="geometry" />
        </mxCell>
        <mxCell id="9DzU3D7UWEempZUTOHUT-8" value="25" style="ellipse;whiteSpace=wrap;html=1;aspect=fixed;" vertex="1" parent="9DzU3D7UWEempZUTOHUT-1">
          <mxGeometry x="-280" y="320" width="60" height="60" as="geometry" />
        </mxCell>
        <mxCell id="9DzU3D7UWEempZUTOHUT-9" style="edgeStyle=orthogonalEdgeStyle;rounded=0;orthogonalLoop=1;jettySize=auto;html=1;exitX=0;exitY=1;exitDx=0;exitDy=0;entryX=0.5;entryY=0;entryDx=0;entryDy=0;" edge="1" parent="9DzU3D7UWEempZUTOHUT-1" source="9DzU3D7UWEempZUTOHUT-11" target="9DzU3D7UWEempZUTOHUT-12">
          <mxGeometry relative="1" as="geometry" />
        </mxCell>
        <mxCell id="9DzU3D7UWEempZUTOHUT-10" style="edgeStyle=orthogonalEdgeStyle;rounded=0;orthogonalLoop=1;jettySize=auto;html=1;exitX=1;exitY=1;exitDx=0;exitDy=0;" edge="1" parent="9DzU3D7UWEempZUTOHUT-1" source="9DzU3D7UWEempZUTOHUT-11" target="9DzU3D7UWEempZUTOHUT-13">
          <mxGeometry relative="1" as="geometry" />
        </mxCell>
        <mxCell id="9DzU3D7UWEempZUTOHUT-11" value="80" style="ellipse;whiteSpace=wrap;html=1;aspect=fixed;" vertex="1" parent="9DzU3D7UWEempZUTOHUT-1">
          <mxGeometry x="-520" y="410" width="60" height="60" as="geometry" />
        </mxCell>
        <mxCell id="9DzU3D7UWEempZUTOHUT-12" value="7" style="ellipse;whiteSpace=wrap;html=1;aspect=fixed;" vertex="1" parent="9DzU3D7UWEempZUTOHUT-1">
          <mxGeometry x="-650" y="490" width="60" height="60" as="geometry" />
        </mxCell>
        <mxCell id="9DzU3D7UWEempZUTOHUT-13" value="29" style="ellipse;whiteSpace=wrap;html=1;aspect=fixed;" vertex="1" parent="9DzU3D7UWEempZUTOHUT-1">
          <mxGeometry x="-385" y="490" width="60" height="60" as="geometry" />
        </mxCell>
        <mxCell id="9DzU3D7UWEempZUTOHUT-14" style="edgeStyle=orthogonalEdgeStyle;rounded=0;orthogonalLoop=1;jettySize=auto;html=1;exitX=0;exitY=1;exitDx=0;exitDy=0;entryX=0.5;entryY=0;entryDx=0;entryDy=0;" edge="1" parent="9DzU3D7UWEempZUTOHUT-1" source="9DzU3D7UWEempZUTOHUT-16" target="9DzU3D7UWEempZUTOHUT-17">
          <mxGeometry relative="1" as="geometry" />
        </mxCell>
        <mxCell id="9DzU3D7UWEempZUTOHUT-15" style="edgeStyle=orthogonalEdgeStyle;rounded=0;orthogonalLoop=1;jettySize=auto;html=1;exitX=1;exitY=1;exitDx=0;exitDy=0;" edge="1" parent="9DzU3D7UWEempZUTOHUT-1" source="9DzU3D7UWEempZUTOHUT-16" target="9DzU3D7UWEempZUTOHUT-18">
          <mxGeometry relative="1" as="geometry" />
        </mxCell>
        <mxCell id="9DzU3D7UWEempZUTOHUT-16" value="22" style="ellipse;whiteSpace=wrap;html=1;aspect=fixed;" vertex="1" parent="9DzU3D7UWEempZUTOHUT-1">
          <mxGeometry x="-20" y="410" width="60" height="60" as="geometry" />
        </mxCell>
        <mxCell id="9DzU3D7UWEempZUTOHUT-17" value="13" style="ellipse;whiteSpace=wrap;html=1;aspect=fixed;" vertex="1" parent="9DzU3D7UWEempZUTOHUT-1">
          <mxGeometry x="-150" y="490" width="60" height="60" as="geometry" />
        </mxCell>
        <mxCell id="9DzU3D7UWEempZUTOHUT-18" value="16" style="ellipse;whiteSpace=wrap;html=1;aspect=fixed;" vertex="1" parent="9DzU3D7UWEempZUTOHUT-1">
          <mxGeometry x="115" y="490" width="60" height="60" as="geometry" />
        </mxCell>
        <mxCell id="9DzU3D7UWEempZUTOHUT-19" style="edgeStyle=orthogonalEdgeStyle;rounded=0;orthogonalLoop=1;jettySize=auto;html=1;exitX=0;exitY=1;exitDx=0;exitDy=0;entryX=0.5;entryY=0;entryDx=0;entryDy=0;" edge="1" parent="9DzU3D7UWEempZUTOHUT-1" source="9DzU3D7UWEempZUTOHUT-21" target="9DzU3D7UWEempZUTOHUT-23">
          <mxGeometry relative="1" as="geometry" />
        </mxCell>
        <mxCell id="9DzU3D7UWEempZUTOHUT-20" style="edgeStyle=orthogonalEdgeStyle;rounded=0;orthogonalLoop=1;jettySize=auto;html=1;exitX=1;exitY=1;exitDx=0;exitDy=0;entryX=0.5;entryY=0;entryDx=0;entryDy=0;" edge="1" parent="9DzU3D7UWEempZUTOHUT-1" source="9DzU3D7UWEempZUTOHUT-21" target="9DzU3D7UWEempZUTOHUT-25">
          <mxGeometry relative="1" as="geometry" />
        </mxCell>
        <mxCell id="9DzU3D7UWEempZUTOHUT-21" value="31" style="ellipse;whiteSpace=wrap;html=1;aspect=fixed;fillColor=#dae8fc;strokeColor=#6c8ebf;" vertex="1" parent="9DzU3D7UWEempZUTOHUT-1">
          <mxGeometry x="430" y="320" width="60" height="60" as="geometry" />
        </mxCell>
        <mxCell id="9DzU3D7UWEempZUTOHUT-22" style="edgeStyle=orthogonalEdgeStyle;rounded=0;orthogonalLoop=1;jettySize=auto;html=1;exitX=0;exitY=1;exitDx=0;exitDy=0;entryX=0.5;entryY=0;entryDx=0;entryDy=0;" edge="1" parent="9DzU3D7UWEempZUTOHUT-1" source="9DzU3D7UWEempZUTOHUT-23" target="9DzU3D7UWEempZUTOHUT-24">
          <mxGeometry relative="1" as="geometry" />
        </mxCell>
        <mxCell id="9DzU3D7UWEempZUTOHUT-23" value="19" style="ellipse;whiteSpace=wrap;html=1;aspect=fixed;fillColor=#dae8fc;strokeColor=#6c8ebf;" vertex="1" parent="9DzU3D7UWEempZUTOHUT-1">
          <mxGeometry x="300" y="420" width="60" height="60" as="geometry" />
        </mxCell>
        <mxCell id="9DzU3D7UWEempZUTOHUT-24" value="1" style="ellipse;whiteSpace=wrap;html=1;aspect=fixed;fillColor=#dae8fc;strokeColor=#6c8ebf;" vertex="1" parent="9DzU3D7UWEempZUTOHUT-1">
          <mxGeometry x="220" y="490" width="60" height="60" as="geometry" />
        </mxCell>
        <mxCell id="9DzU3D7UWEempZUTOHUT-25" value="3" style="ellipse;whiteSpace=wrap;html=1;aspect=fixed;" vertex="1" parent="9DzU3D7UWEempZUTOHUT-1">
          <mxGeometry x="570" y="430" width="60" height="60" as="geometry" />
        </mxCell>
        <mxCell id="9DzU3D7UWEempZUTOHUT-26" value="12 Elementos" style="text;html=1;align=center;verticalAlign=middle;resizable=0;points=[];autosize=1;strokeColor=none;fillColor=none;" vertex="1" parent="9DzU3D7UWEempZUTOHUT-1">
          <mxGeometry x="280" y="50" width="100" height="30" as="geometry" />
        </mxCell>
      </root>
    </mxGraphModel>
  </diagram>
  <diagram name="6" id="YlNNOUofoQPU0-qAtzTr">
    <mxGraphModel dx="2639" dy="1136" grid="1" gridSize="10" guides="1" tooltips="1" connect="1" arrows="1" fold="1" page="1" pageScale="1" pageWidth="850" pageHeight="1100" math="0" shadow="0">
      <root>
        <mxCell id="-N9Qh4esyMCubBeUdr2G-0" />
        <mxCell id="-N9Qh4esyMCubBeUdr2G-1" parent="-N9Qh4esyMCubBeUdr2G-0" />
        <mxCell id="-N9Qh4esyMCubBeUdr2G-2" value="&lt;span style=&quot;color: rgb(51, 51, 51); font-family: sans-serif, sans-serif; font-size: 14.44px; text-align: left; background-color: rgb(255, 255, 255);&quot;&gt;6,&amp;nbsp;&lt;/span&gt;&lt;span style=&quot;box-sizing: border-box; color: rgb(51, 51, 51); font-family: sans-serif, sans-serif; text-align: left; background-color: rgb(255, 255, 255); font-size: 0.9375rem;&quot;&gt;25,&amp;nbsp;&lt;/span&gt;&lt;span style=&quot;box-sizing: border-box; color: rgb(51, 51, 51); font-family: sans-serif, sans-serif; text-align: left; background-color: rgb(255, 255, 255); font-size: 0.9375rem;&quot;&gt;1,&amp;nbsp;&lt;/span&gt;&lt;span style=&quot;box-sizing: border-box; color: rgb(51, 51, 51); font-family: sans-serif, sans-serif; text-align: left; background-color: rgb(255, 255, 255); font-size: 0.9375rem;&quot;&gt;7,&amp;nbsp;&lt;/span&gt;&lt;span style=&quot;box-sizing: border-box; color: rgb(51, 51, 51); font-family: sans-serif, sans-serif; text-align: left; background-color: rgb(255, 255, 255); font-size: 0.9375rem;&quot;&gt;16,&amp;nbsp;&lt;/span&gt;&lt;span style=&quot;box-sizing: border-box; color: rgb(51, 51, 51); font-family: sans-serif, sans-serif; text-align: left; background-color: rgb(255, 255, 255); font-size: 0.9375rem;&quot;&gt;19,&amp;nbsp;&lt;/span&gt;&lt;span style=&quot;box-sizing: border-box; color: rgb(51, 51, 51); font-family: sans-serif, sans-serif; text-align: left; background-color: rgb(255, 255, 255); font-size: 0.9375rem;&quot;&gt;3,&amp;nbsp;&lt;/span&gt;&lt;span style=&quot;box-sizing: border-box; color: rgb(51, 51, 51); font-family: sans-serif, sans-serif; text-align: left; background-color: rgb(255, 255, 255); font-size: 0.9375rem;&quot;&gt;80,&amp;nbsp;&lt;/span&gt;&lt;span style=&quot;box-sizing: border-box; color: rgb(51, 51, 51); font-family: sans-serif, sans-serif; text-align: left; background-color: rgb(255, 255, 255); font-size: 0.9375rem;&quot;&gt;29,&amp;nbsp;&lt;/span&gt;&lt;span style=&quot;box-sizing: border-box; color: rgb(51, 51, 51); font-family: sans-serif, sans-serif; text-align: left; background-color: rgb(255, 255, 255); font-size: 0.9375rem;&quot;&gt;13,&amp;nbsp;&lt;/span&gt;&lt;span style=&quot;box-sizing: border-box; color: rgb(51, 51, 51); font-family: sans-serif, sans-serif; text-align: left; background-color: rgb(255, 255, 255); font-size: 0.9375rem;&quot;&gt;22,&amp;nbsp;&lt;/span&gt;&lt;span style=&quot;box-sizing: border-box; color: rgb(51, 51, 51); font-family: sans-serif, sans-serif; text-align: left; background-color: rgb(255, 255, 255); font-size: 0.9375rem;&quot;&gt;31&lt;/span&gt;" style="rounded=1;whiteSpace=wrap;html=1;" vertex="1" parent="-N9Qh4esyMCubBeUdr2G-1">
          <mxGeometry x="60" y="80" width="310" height="40" as="geometry" />
        </mxCell>
        <mxCell id="-N9Qh4esyMCubBeUdr2G-3" style="edgeStyle=orthogonalEdgeStyle;rounded=0;orthogonalLoop=1;jettySize=auto;html=1;exitX=0;exitY=1;exitDx=0;exitDy=0;entryX=0.5;entryY=0;entryDx=0;entryDy=0;" edge="1" parent="-N9Qh4esyMCubBeUdr2G-1" source="-N9Qh4esyMCubBeUdr2G-5" target="-N9Qh4esyMCubBeUdr2G-8">
          <mxGeometry relative="1" as="geometry" />
        </mxCell>
        <mxCell id="-N9Qh4esyMCubBeUdr2G-4" style="edgeStyle=orthogonalEdgeStyle;rounded=0;orthogonalLoop=1;jettySize=auto;html=1;exitX=1;exitY=1;exitDx=0;exitDy=0;entryX=0.5;entryY=0;entryDx=0;entryDy=0;" edge="1" parent="-N9Qh4esyMCubBeUdr2G-1" source="-N9Qh4esyMCubBeUdr2G-5" target="-N9Qh4esyMCubBeUdr2G-21">
          <mxGeometry relative="1" as="geometry" />
        </mxCell>
        <mxCell id="-N9Qh4esyMCubBeUdr2G-5" value="6" style="ellipse;whiteSpace=wrap;html=1;aspect=fixed;" vertex="1" parent="-N9Qh4esyMCubBeUdr2G-1">
          <mxGeometry x="90" y="160" width="60" height="60" as="geometry" />
        </mxCell>
        <mxCell id="-N9Qh4esyMCubBeUdr2G-6" style="edgeStyle=orthogonalEdgeStyle;rounded=0;orthogonalLoop=1;jettySize=auto;html=1;exitX=0;exitY=1;exitDx=0;exitDy=0;entryX=0.5;entryY=0;entryDx=0;entryDy=0;" edge="1" parent="-N9Qh4esyMCubBeUdr2G-1" source="-N9Qh4esyMCubBeUdr2G-8" target="-N9Qh4esyMCubBeUdr2G-11">
          <mxGeometry relative="1" as="geometry" />
        </mxCell>
        <mxCell id="-N9Qh4esyMCubBeUdr2G-7" style="edgeStyle=orthogonalEdgeStyle;rounded=0;orthogonalLoop=1;jettySize=auto;html=1;exitX=1;exitY=1;exitDx=0;exitDy=0;entryX=0.5;entryY=0;entryDx=0;entryDy=0;" edge="1" parent="-N9Qh4esyMCubBeUdr2G-1" source="-N9Qh4esyMCubBeUdr2G-8" target="-N9Qh4esyMCubBeUdr2G-16">
          <mxGeometry relative="1" as="geometry" />
        </mxCell>
        <mxCell id="-N9Qh4esyMCubBeUdr2G-8" value="80" style="ellipse;whiteSpace=wrap;html=1;aspect=fixed;fillColor=#dae8fc;strokeColor=#6c8ebf;" vertex="1" parent="-N9Qh4esyMCubBeUdr2G-1">
          <mxGeometry x="-280" y="320" width="60" height="60" as="geometry" />
        </mxCell>
        <mxCell id="-N9Qh4esyMCubBeUdr2G-9" style="edgeStyle=orthogonalEdgeStyle;rounded=0;orthogonalLoop=1;jettySize=auto;html=1;exitX=0;exitY=1;exitDx=0;exitDy=0;entryX=0.5;entryY=0;entryDx=0;entryDy=0;" edge="1" parent="-N9Qh4esyMCubBeUdr2G-1" source="-N9Qh4esyMCubBeUdr2G-11" target="-N9Qh4esyMCubBeUdr2G-12">
          <mxGeometry relative="1" as="geometry" />
        </mxCell>
        <mxCell id="-N9Qh4esyMCubBeUdr2G-10" style="edgeStyle=orthogonalEdgeStyle;rounded=0;orthogonalLoop=1;jettySize=auto;html=1;exitX=1;exitY=1;exitDx=0;exitDy=0;" edge="1" parent="-N9Qh4esyMCubBeUdr2G-1" source="-N9Qh4esyMCubBeUdr2G-11" target="-N9Qh4esyMCubBeUdr2G-13">
          <mxGeometry relative="1" as="geometry" />
        </mxCell>
        <mxCell id="-N9Qh4esyMCubBeUdr2G-11" value="29" style="ellipse;whiteSpace=wrap;html=1;aspect=fixed;fillColor=#dae8fc;strokeColor=#6c8ebf;" vertex="1" parent="-N9Qh4esyMCubBeUdr2G-1">
          <mxGeometry x="-520" y="410" width="60" height="60" as="geometry" />
        </mxCell>
        <mxCell id="-N9Qh4esyMCubBeUdr2G-12" value="7" style="ellipse;whiteSpace=wrap;html=1;aspect=fixed;" vertex="1" parent="-N9Qh4esyMCubBeUdr2G-1">
          <mxGeometry x="-650" y="490" width="60" height="60" as="geometry" />
        </mxCell>
        <mxCell id="-N9Qh4esyMCubBeUdr2G-13" value="25" style="ellipse;whiteSpace=wrap;html=1;aspect=fixed;fillColor=#dae8fc;strokeColor=#6c8ebf;" vertex="1" parent="-N9Qh4esyMCubBeUdr2G-1">
          <mxGeometry x="-385" y="490" width="60" height="60" as="geometry" />
        </mxCell>
        <mxCell id="-N9Qh4esyMCubBeUdr2G-14" style="edgeStyle=orthogonalEdgeStyle;rounded=0;orthogonalLoop=1;jettySize=auto;html=1;exitX=0;exitY=1;exitDx=0;exitDy=0;entryX=0.5;entryY=0;entryDx=0;entryDy=0;" edge="1" parent="-N9Qh4esyMCubBeUdr2G-1" source="-N9Qh4esyMCubBeUdr2G-16" target="-N9Qh4esyMCubBeUdr2G-17">
          <mxGeometry relative="1" as="geometry" />
        </mxCell>
        <mxCell id="-N9Qh4esyMCubBeUdr2G-15" style="edgeStyle=orthogonalEdgeStyle;rounded=0;orthogonalLoop=1;jettySize=auto;html=1;exitX=1;exitY=1;exitDx=0;exitDy=0;" edge="1" parent="-N9Qh4esyMCubBeUdr2G-1" source="-N9Qh4esyMCubBeUdr2G-16" target="-N9Qh4esyMCubBeUdr2G-18">
          <mxGeometry relative="1" as="geometry" />
        </mxCell>
        <mxCell id="-N9Qh4esyMCubBeUdr2G-16" value="22" style="ellipse;whiteSpace=wrap;html=1;aspect=fixed;" vertex="1" parent="-N9Qh4esyMCubBeUdr2G-1">
          <mxGeometry x="-20" y="410" width="60" height="60" as="geometry" />
        </mxCell>
        <mxCell id="-N9Qh4esyMCubBeUdr2G-17" value="13" style="ellipse;whiteSpace=wrap;html=1;aspect=fixed;" vertex="1" parent="-N9Qh4esyMCubBeUdr2G-1">
          <mxGeometry x="-150" y="490" width="60" height="60" as="geometry" />
        </mxCell>
        <mxCell id="-N9Qh4esyMCubBeUdr2G-18" value="16" style="ellipse;whiteSpace=wrap;html=1;aspect=fixed;" vertex="1" parent="-N9Qh4esyMCubBeUdr2G-1">
          <mxGeometry x="115" y="490" width="60" height="60" as="geometry" />
        </mxCell>
        <mxCell id="-N9Qh4esyMCubBeUdr2G-19" style="edgeStyle=orthogonalEdgeStyle;rounded=0;orthogonalLoop=1;jettySize=auto;html=1;exitX=0;exitY=1;exitDx=0;exitDy=0;entryX=0.5;entryY=0;entryDx=0;entryDy=0;" edge="1" parent="-N9Qh4esyMCubBeUdr2G-1" source="-N9Qh4esyMCubBeUdr2G-21" target="-N9Qh4esyMCubBeUdr2G-23">
          <mxGeometry relative="1" as="geometry" />
        </mxCell>
        <mxCell id="-N9Qh4esyMCubBeUdr2G-20" style="edgeStyle=orthogonalEdgeStyle;rounded=0;orthogonalLoop=1;jettySize=auto;html=1;exitX=1;exitY=1;exitDx=0;exitDy=0;entryX=0.5;entryY=0;entryDx=0;entryDy=0;" edge="1" parent="-N9Qh4esyMCubBeUdr2G-1" source="-N9Qh4esyMCubBeUdr2G-21" target="-N9Qh4esyMCubBeUdr2G-25">
          <mxGeometry relative="1" as="geometry" />
        </mxCell>
        <mxCell id="-N9Qh4esyMCubBeUdr2G-21" value="31" style="ellipse;whiteSpace=wrap;html=1;aspect=fixed;" vertex="1" parent="-N9Qh4esyMCubBeUdr2G-1">
          <mxGeometry x="430" y="320" width="60" height="60" as="geometry" />
        </mxCell>
        <mxCell id="-N9Qh4esyMCubBeUdr2G-22" style="edgeStyle=orthogonalEdgeStyle;rounded=0;orthogonalLoop=1;jettySize=auto;html=1;exitX=0;exitY=1;exitDx=0;exitDy=0;entryX=0.5;entryY=0;entryDx=0;entryDy=0;" edge="1" parent="-N9Qh4esyMCubBeUdr2G-1" source="-N9Qh4esyMCubBeUdr2G-23" target="-N9Qh4esyMCubBeUdr2G-24">
          <mxGeometry relative="1" as="geometry" />
        </mxCell>
        <mxCell id="-N9Qh4esyMCubBeUdr2G-23" value="19" style="ellipse;whiteSpace=wrap;html=1;aspect=fixed;" vertex="1" parent="-N9Qh4esyMCubBeUdr2G-1">
          <mxGeometry x="300" y="420" width="60" height="60" as="geometry" />
        </mxCell>
        <mxCell id="-N9Qh4esyMCubBeUdr2G-24" value="1" style="ellipse;whiteSpace=wrap;html=1;aspect=fixed;" vertex="1" parent="-N9Qh4esyMCubBeUdr2G-1">
          <mxGeometry x="220" y="490" width="60" height="60" as="geometry" />
        </mxCell>
        <mxCell id="-N9Qh4esyMCubBeUdr2G-25" value="3" style="ellipse;whiteSpace=wrap;html=1;aspect=fixed;" vertex="1" parent="-N9Qh4esyMCubBeUdr2G-1">
          <mxGeometry x="570" y="430" width="60" height="60" as="geometry" />
        </mxCell>
        <mxCell id="-N9Qh4esyMCubBeUdr2G-26" value="12 Elementos" style="text;html=1;align=center;verticalAlign=middle;resizable=0;points=[];autosize=1;strokeColor=none;fillColor=none;" vertex="1" parent="-N9Qh4esyMCubBeUdr2G-1">
          <mxGeometry x="280" y="50" width="100" height="30" as="geometry" />
        </mxCell>
      </root>
    </mxGraphModel>
  </diagram>
  <diagram name="7" id="uArNm4DSE-5Vxq9aNQhp">
    <mxGraphModel dx="2639" dy="1136" grid="1" gridSize="10" guides="1" tooltips="1" connect="1" arrows="1" fold="1" page="1" pageScale="1" pageWidth="850" pageHeight="1100" math="0" shadow="0">
      <root>
        <mxCell id="7OJQEvLzq5w-hXB0vVYY-0" />
        <mxCell id="7OJQEvLzq5w-hXB0vVYY-1" parent="7OJQEvLzq5w-hXB0vVYY-0" />
        <mxCell id="7OJQEvLzq5w-hXB0vVYY-2" value="&lt;span style=&quot;color: rgb(51, 51, 51); font-family: sans-serif, sans-serif; font-size: 14.44px; text-align: left; background-color: rgb(255, 255, 255);&quot;&gt;6,&amp;nbsp;&lt;/span&gt;&lt;span style=&quot;box-sizing: border-box; color: rgb(51, 51, 51); font-family: sans-serif, sans-serif; text-align: left; background-color: rgb(255, 255, 255); font-size: 0.9375rem;&quot;&gt;25,&amp;nbsp;&lt;/span&gt;&lt;span style=&quot;box-sizing: border-box; color: rgb(51, 51, 51); font-family: sans-serif, sans-serif; text-align: left; background-color: rgb(255, 255, 255); font-size: 0.9375rem;&quot;&gt;1,&amp;nbsp;&lt;/span&gt;&lt;span style=&quot;box-sizing: border-box; color: rgb(51, 51, 51); font-family: sans-serif, sans-serif; text-align: left; background-color: rgb(255, 255, 255); font-size: 0.9375rem;&quot;&gt;7,&amp;nbsp;&lt;/span&gt;&lt;span style=&quot;box-sizing: border-box; color: rgb(51, 51, 51); font-family: sans-serif, sans-serif; text-align: left; background-color: rgb(255, 255, 255); font-size: 0.9375rem;&quot;&gt;16,&amp;nbsp;&lt;/span&gt;&lt;span style=&quot;box-sizing: border-box; color: rgb(51, 51, 51); font-family: sans-serif, sans-serif; text-align: left; background-color: rgb(255, 255, 255); font-size: 0.9375rem;&quot;&gt;19,&amp;nbsp;&lt;/span&gt;&lt;span style=&quot;box-sizing: border-box; color: rgb(51, 51, 51); font-family: sans-serif, sans-serif; text-align: left; background-color: rgb(255, 255, 255); font-size: 0.9375rem;&quot;&gt;3,&amp;nbsp;&lt;/span&gt;&lt;span style=&quot;box-sizing: border-box; color: rgb(51, 51, 51); font-family: sans-serif, sans-serif; text-align: left; background-color: rgb(255, 255, 255); font-size: 0.9375rem;&quot;&gt;80,&amp;nbsp;&lt;/span&gt;&lt;span style=&quot;box-sizing: border-box; color: rgb(51, 51, 51); font-family: sans-serif, sans-serif; text-align: left; background-color: rgb(255, 255, 255); font-size: 0.9375rem;&quot;&gt;29,&amp;nbsp;&lt;/span&gt;&lt;span style=&quot;box-sizing: border-box; color: rgb(51, 51, 51); font-family: sans-serif, sans-serif; text-align: left; background-color: rgb(255, 255, 255); font-size: 0.9375rem;&quot;&gt;13,&amp;nbsp;&lt;/span&gt;&lt;span style=&quot;box-sizing: border-box; color: rgb(51, 51, 51); font-family: sans-serif, sans-serif; text-align: left; background-color: rgb(255, 255, 255); font-size: 0.9375rem;&quot;&gt;22,&amp;nbsp;&lt;/span&gt;&lt;span style=&quot;box-sizing: border-box; color: rgb(51, 51, 51); font-family: sans-serif, sans-serif; text-align: left; background-color: rgb(255, 255, 255); font-size: 0.9375rem;&quot;&gt;31&lt;/span&gt;" style="rounded=1;whiteSpace=wrap;html=1;" vertex="1" parent="7OJQEvLzq5w-hXB0vVYY-1">
          <mxGeometry x="60" y="80" width="310" height="40" as="geometry" />
        </mxCell>
        <mxCell id="7OJQEvLzq5w-hXB0vVYY-3" style="edgeStyle=orthogonalEdgeStyle;rounded=0;orthogonalLoop=1;jettySize=auto;html=1;exitX=0;exitY=1;exitDx=0;exitDy=0;entryX=0.5;entryY=0;entryDx=0;entryDy=0;" edge="1" parent="7OJQEvLzq5w-hXB0vVYY-1" source="7OJQEvLzq5w-hXB0vVYY-5" target="7OJQEvLzq5w-hXB0vVYY-8">
          <mxGeometry relative="1" as="geometry" />
        </mxCell>
        <mxCell id="7OJQEvLzq5w-hXB0vVYY-4" style="edgeStyle=orthogonalEdgeStyle;rounded=0;orthogonalLoop=1;jettySize=auto;html=1;exitX=1;exitY=1;exitDx=0;exitDy=0;entryX=0.5;entryY=0;entryDx=0;entryDy=0;" edge="1" parent="7OJQEvLzq5w-hXB0vVYY-1" source="7OJQEvLzq5w-hXB0vVYY-5" target="7OJQEvLzq5w-hXB0vVYY-21">
          <mxGeometry relative="1" as="geometry" />
        </mxCell>
        <mxCell id="7OJQEvLzq5w-hXB0vVYY-5" value="80" style="ellipse;whiteSpace=wrap;html=1;aspect=fixed;fillColor=#dae8fc;strokeColor=#6c8ebf;" vertex="1" parent="7OJQEvLzq5w-hXB0vVYY-1">
          <mxGeometry x="90" y="160" width="60" height="60" as="geometry" />
        </mxCell>
        <mxCell id="7OJQEvLzq5w-hXB0vVYY-6" style="edgeStyle=orthogonalEdgeStyle;rounded=0;orthogonalLoop=1;jettySize=auto;html=1;exitX=0;exitY=1;exitDx=0;exitDy=0;entryX=0.5;entryY=0;entryDx=0;entryDy=0;" edge="1" parent="7OJQEvLzq5w-hXB0vVYY-1" source="7OJQEvLzq5w-hXB0vVYY-8" target="7OJQEvLzq5w-hXB0vVYY-11">
          <mxGeometry relative="1" as="geometry" />
        </mxCell>
        <mxCell id="7OJQEvLzq5w-hXB0vVYY-7" style="edgeStyle=orthogonalEdgeStyle;rounded=0;orthogonalLoop=1;jettySize=auto;html=1;exitX=1;exitY=1;exitDx=0;exitDy=0;entryX=0.5;entryY=0;entryDx=0;entryDy=0;" edge="1" parent="7OJQEvLzq5w-hXB0vVYY-1" source="7OJQEvLzq5w-hXB0vVYY-8" target="7OJQEvLzq5w-hXB0vVYY-16">
          <mxGeometry relative="1" as="geometry" />
        </mxCell>
        <mxCell id="7OJQEvLzq5w-hXB0vVYY-8" value="29" style="ellipse;whiteSpace=wrap;html=1;aspect=fixed;fillColor=#dae8fc;strokeColor=#6c8ebf;" vertex="1" parent="7OJQEvLzq5w-hXB0vVYY-1">
          <mxGeometry x="-280" y="320" width="60" height="60" as="geometry" />
        </mxCell>
        <mxCell id="7OJQEvLzq5w-hXB0vVYY-9" style="edgeStyle=orthogonalEdgeStyle;rounded=0;orthogonalLoop=1;jettySize=auto;html=1;exitX=0;exitY=1;exitDx=0;exitDy=0;entryX=0.5;entryY=0;entryDx=0;entryDy=0;" edge="1" parent="7OJQEvLzq5w-hXB0vVYY-1" source="7OJQEvLzq5w-hXB0vVYY-11" target="7OJQEvLzq5w-hXB0vVYY-12">
          <mxGeometry relative="1" as="geometry" />
        </mxCell>
        <mxCell id="7OJQEvLzq5w-hXB0vVYY-10" style="edgeStyle=orthogonalEdgeStyle;rounded=0;orthogonalLoop=1;jettySize=auto;html=1;exitX=1;exitY=1;exitDx=0;exitDy=0;" edge="1" parent="7OJQEvLzq5w-hXB0vVYY-1" source="7OJQEvLzq5w-hXB0vVYY-11" target="7OJQEvLzq5w-hXB0vVYY-13">
          <mxGeometry relative="1" as="geometry" />
        </mxCell>
        <mxCell id="7OJQEvLzq5w-hXB0vVYY-11" value="25" style="ellipse;whiteSpace=wrap;html=1;aspect=fixed;fillColor=#dae8fc;strokeColor=#6c8ebf;" vertex="1" parent="7OJQEvLzq5w-hXB0vVYY-1">
          <mxGeometry x="-520" y="410" width="60" height="60" as="geometry" />
        </mxCell>
        <mxCell id="7OJQEvLzq5w-hXB0vVYY-12" value="7" style="ellipse;whiteSpace=wrap;html=1;aspect=fixed;" vertex="1" parent="7OJQEvLzq5w-hXB0vVYY-1">
          <mxGeometry x="-650" y="490" width="60" height="60" as="geometry" />
        </mxCell>
        <mxCell id="7OJQEvLzq5w-hXB0vVYY-13" value="6" style="ellipse;whiteSpace=wrap;html=1;aspect=fixed;fillColor=#dae8fc;strokeColor=#6c8ebf;" vertex="1" parent="7OJQEvLzq5w-hXB0vVYY-1">
          <mxGeometry x="-385" y="490" width="60" height="60" as="geometry" />
        </mxCell>
        <mxCell id="7OJQEvLzq5w-hXB0vVYY-14" style="edgeStyle=orthogonalEdgeStyle;rounded=0;orthogonalLoop=1;jettySize=auto;html=1;exitX=0;exitY=1;exitDx=0;exitDy=0;entryX=0.5;entryY=0;entryDx=0;entryDy=0;" edge="1" parent="7OJQEvLzq5w-hXB0vVYY-1" source="7OJQEvLzq5w-hXB0vVYY-16" target="7OJQEvLzq5w-hXB0vVYY-17">
          <mxGeometry relative="1" as="geometry" />
        </mxCell>
        <mxCell id="7OJQEvLzq5w-hXB0vVYY-15" style="edgeStyle=orthogonalEdgeStyle;rounded=0;orthogonalLoop=1;jettySize=auto;html=1;exitX=1;exitY=1;exitDx=0;exitDy=0;" edge="1" parent="7OJQEvLzq5w-hXB0vVYY-1" source="7OJQEvLzq5w-hXB0vVYY-16" target="7OJQEvLzq5w-hXB0vVYY-18">
          <mxGeometry relative="1" as="geometry" />
        </mxCell>
        <mxCell id="7OJQEvLzq5w-hXB0vVYY-16" value="22" style="ellipse;whiteSpace=wrap;html=1;aspect=fixed;" vertex="1" parent="7OJQEvLzq5w-hXB0vVYY-1">
          <mxGeometry x="-20" y="410" width="60" height="60" as="geometry" />
        </mxCell>
        <mxCell id="7OJQEvLzq5w-hXB0vVYY-17" value="13" style="ellipse;whiteSpace=wrap;html=1;aspect=fixed;" vertex="1" parent="7OJQEvLzq5w-hXB0vVYY-1">
          <mxGeometry x="-150" y="490" width="60" height="60" as="geometry" />
        </mxCell>
        <mxCell id="7OJQEvLzq5w-hXB0vVYY-18" value="16" style="ellipse;whiteSpace=wrap;html=1;aspect=fixed;" vertex="1" parent="7OJQEvLzq5w-hXB0vVYY-1">
          <mxGeometry x="115" y="490" width="60" height="60" as="geometry" />
        </mxCell>
        <mxCell id="7OJQEvLzq5w-hXB0vVYY-19" style="edgeStyle=orthogonalEdgeStyle;rounded=0;orthogonalLoop=1;jettySize=auto;html=1;exitX=0;exitY=1;exitDx=0;exitDy=0;entryX=0.5;entryY=0;entryDx=0;entryDy=0;" edge="1" parent="7OJQEvLzq5w-hXB0vVYY-1" source="7OJQEvLzq5w-hXB0vVYY-21" target="7OJQEvLzq5w-hXB0vVYY-23">
          <mxGeometry relative="1" as="geometry" />
        </mxCell>
        <mxCell id="7OJQEvLzq5w-hXB0vVYY-20" style="edgeStyle=orthogonalEdgeStyle;rounded=0;orthogonalLoop=1;jettySize=auto;html=1;exitX=1;exitY=1;exitDx=0;exitDy=0;entryX=0.5;entryY=0;entryDx=0;entryDy=0;" edge="1" parent="7OJQEvLzq5w-hXB0vVYY-1" source="7OJQEvLzq5w-hXB0vVYY-21" target="7OJQEvLzq5w-hXB0vVYY-25">
          <mxGeometry relative="1" as="geometry" />
        </mxCell>
        <mxCell id="7OJQEvLzq5w-hXB0vVYY-21" value="31" style="ellipse;whiteSpace=wrap;html=1;aspect=fixed;" vertex="1" parent="7OJQEvLzq5w-hXB0vVYY-1">
          <mxGeometry x="430" y="320" width="60" height="60" as="geometry" />
        </mxCell>
        <mxCell id="7OJQEvLzq5w-hXB0vVYY-22" style="edgeStyle=orthogonalEdgeStyle;rounded=0;orthogonalLoop=1;jettySize=auto;html=1;exitX=0;exitY=1;exitDx=0;exitDy=0;entryX=0.5;entryY=0;entryDx=0;entryDy=0;" edge="1" parent="7OJQEvLzq5w-hXB0vVYY-1" source="7OJQEvLzq5w-hXB0vVYY-23" target="7OJQEvLzq5w-hXB0vVYY-24">
          <mxGeometry relative="1" as="geometry" />
        </mxCell>
        <mxCell id="7OJQEvLzq5w-hXB0vVYY-23" value="19" style="ellipse;whiteSpace=wrap;html=1;aspect=fixed;" vertex="1" parent="7OJQEvLzq5w-hXB0vVYY-1">
          <mxGeometry x="300" y="420" width="60" height="60" as="geometry" />
        </mxCell>
        <mxCell id="7OJQEvLzq5w-hXB0vVYY-24" value="1" style="ellipse;whiteSpace=wrap;html=1;aspect=fixed;" vertex="1" parent="7OJQEvLzq5w-hXB0vVYY-1">
          <mxGeometry x="220" y="490" width="60" height="60" as="geometry" />
        </mxCell>
        <mxCell id="7OJQEvLzq5w-hXB0vVYY-25" value="3" style="ellipse;whiteSpace=wrap;html=1;aspect=fixed;" vertex="1" parent="7OJQEvLzq5w-hXB0vVYY-1">
          <mxGeometry x="570" y="430" width="60" height="60" as="geometry" />
        </mxCell>
        <mxCell id="7OJQEvLzq5w-hXB0vVYY-26" value="12 Elementos" style="text;html=1;align=center;verticalAlign=middle;resizable=0;points=[];autosize=1;strokeColor=none;fillColor=none;" vertex="1" parent="7OJQEvLzq5w-hXB0vVYY-1">
          <mxGeometry x="280" y="50" width="100" height="30" as="geometry" />
        </mxCell>
      </root>
    </mxGraphModel>
  </diagram>
</mxfile>
